<?xml version="1.0" encoding="utf-8"?>
<!-- Generator: Adobe Illustrator 17.0.0, SVG Export Plug-In . SVG Version: 6.00 Build 0)  -->
<!DOCTYPE svg PUBLIC "-//W3C//DTD SVG 1.1//EN" "http://www.w3.org/Graphics/SVG/1.1/DTD/svg11.dtd">
<svg version="1.1"
	 id="svg2203" inkscape:output_extension="org.inkscape.output.svg.inkscape" sodipodi:version="0.32" sodipodi:docbase="D:\SVG\闂傚倸鍊风粈渚€骞栭弻娑欐償閵忕姷浠肩紓浣介哺閹告悂鏌" sodipodi:docname="闂傚倷娴囧Δ鐘叉憸缁辩偞绻濋崒婊呯＜婵℃贡缁犳岸姊洪幖鐐插姕婵＄偠妫勯悾椋庣矙鐠囩偓妫冮崺鈧柟鑻痝" inkscape:version="0.45.1" xmlns:sodipodi="http://sodipodi.sourceforge.net/DTD/sodipodi-0.dtd" xmlns:dc="http://purl.org/dc/elements/1.1/" xmlns:cc="http://web.resource.org/cc/" xmlns:inkscape="http://www.inkscape.org/namespaces/inkscape" xmlns:rdf="http://www.w3.org/1999/02/22-rdf-syntax-ns#" xmlns:svg="http://www.w3.org/2000/svg"
	 xmlns="http://www.w3.org/2000/svg" xmlns:xlink="http://www.w3.org/1999/xlink" x="0px" y="0px" width="30px" height="30px"
	 viewBox="0 0 30 30" enable-background="new 0 0 30 30" xml:space="preserve">
<sodipodi:namedview  inkscape:pageopacity="0.0" inkscape:pageshadow="2" inkscape:document-units="px" inkscape:window-x="-4" inkscape:window-y="-4" inkscape:window-width="1280" inkscape:window-height="968" inkscape:guide-bbox="true" inkscape:current-layer="layer1" showguides="true" bordercolor="#666666" inkscape:cy="646.08493" gridtolerance="10000" id="base" borderopacity="1.0" objecttolerance="10" pagecolor="#ffffff" inkscape:cx="126.79097" inkscape:zoom="0.74999999" guidetolerance="10">
	<sodipodi:guide  position="1116" orientation="vertical" id="guide22942"></sodipodi:guide>
	<sodipodi:guide  position="1147" orientation="vertical" id="guide22944"></sodipodi:guide>
</sodipodi:namedview>
<g>
	<path d="M9.055,16.444v4.274H7.876V9.285h2.599c0.988,0,1.755,0.298,2.299,0.893c0.544,0.597,0.817,1.447,0.817,2.554
		c0,1.122-0.319,2.032-0.956,2.727c-0.639,0.695-1.435,1.024-2.392,0.986L9.055,16.444L9.055,16.444z"/>
	<path fill="#FFFFFF" d="M9.055,10.583v4.562h1.094c0.722,0,1.267-0.203,1.642-0.609s0.562-0.986,0.562-1.746
		c0-1.471-0.697-2.207-2.093-2.207C10.26,10.583,9.055,10.583,9.055,10.583z"/>
	<path d="M22.123,19.934c-0.914,0.65-1.946,0.975-3.094,0.975c-1.323,0-2.388-0.523-3.198-1.569
		c-0.808-1.047-1.213-2.442-1.213-4.189c0-1.765,0.446-3.218,1.341-4.354c0.895-1.137,2.039-1.705,3.435-1.705
		c0.988,0,1.825,0.196,2.509,0.59v1.595c-0.73-0.575-1.604-0.863-2.613-0.863c-0.997,0-1.817,0.427-2.463,1.277
		c-0.647,0.852-0.971,1.973-0.971,3.367c0,1.431,0.299,2.547,0.892,3.344c0.595,0.797,1.399,1.196,2.411,1.196
		c0.697,0,1.29-0.168,1.778-0.502v-3.092h-1.985v-1.308h3.172L22.123,19.934L22.123,19.934z"/>
</g>
</svg>
