<?xml version="1.0" encoding="utf-8"?>
<!-- Generator: Adobe Illustrator 17.0.0, SVG Export Plug-In . SVG Version: 6.00 Build 0)  -->
<!DOCTYPE svg PUBLIC "-//W3C//DTD SVG 1.1//EN" "http://www.w3.org/Graphics/SVG/1.1/DTD/svg11.dtd">
<svg version="1.1"
	 id="svg2203" inkscape:output_extension="org.inkscape.output.svg.inkscape" sodipodi:version="0.32" sodipodi:docbase="D:\SVG\闂傚倸鍊风粈渚€骞栭弻娑欐償閵忕姷浠肩紓浣介哺閹告悂鏌" sodipodi:docname="闂傚倷娴囧Δ鐘叉憸缁辩偞绻濋崒婊呯＜婵℃贡缁犳岸姊洪幖鐐插姕婵＄偠妫勯悾椋庣矙鐠囩偓妫冮崺鈧柟鑻痝" inkscape:version="0.45.1" xmlns:sodipodi="http://sodipodi.sourceforge.net/DTD/sodipodi-0.dtd" xmlns:dc="http://purl.org/dc/elements/1.1/" xmlns:cc="http://web.resource.org/cc/" xmlns:inkscape="http://www.inkscape.org/namespaces/inkscape" xmlns:rdf="http://www.w3.org/1999/02/22-rdf-syntax-ns#" xmlns:svg="http://www.w3.org/2000/svg"
	 xmlns="http://www.w3.org/2000/svg" xmlns:xlink="http://www.w3.org/1999/xlink" x="0px" y="0px" width="30px" height="30px"
	 viewBox="0 0 30 30" enable-background="new 0 0 30 30" xml:space="preserve">
<sodipodi:namedview  inkscape:pageopacity="0.0" inkscape:pageshadow="2" inkscape:document-units="px" inkscape:window-x="-4" inkscape:window-y="-4" inkscape:window-width="1280" inkscape:window-height="968" inkscape:guide-bbox="true" inkscape:current-layer="layer1" showguides="true" bordercolor="#666666" inkscape:cy="646.08493" gridtolerance="10000" id="base" borderopacity="1.0" objecttolerance="10" pagecolor="#ffffff" inkscape:cx="126.79097" inkscape:zoom="0.74999999" guidetolerance="10">
	<sodipodi:guide  position="1116" orientation="vertical" id="guide22942"></sodipodi:guide>
	<sodipodi:guide  position="1147" orientation="vertical" id="guide22944"></sodipodi:guide>
</sodipodi:namedview>
<g enable-background="new    ">
	<path d="M13.154,20.663H8.281V9.337h4.666v1.302H9.449v3.626h3.241v1.294H9.449v3.809h3.705V20.663z"/>
	<path d="M21.717,19.887c-0.904,0.645-1.927,0.967-3.065,0.967c-1.311,0-2.366-0.519-3.167-1.555
		c-0.801-1.037-1.202-2.418-1.202-4.15c0-1.749,0.441-3.188,1.329-4.314c0.886-1.126,2.02-1.689,3.403-1.689
		c0.978,0,1.808,0.194,2.484,0.585v1.581c-0.723-0.57-1.589-0.855-2.589-0.855c-0.986,0-1.799,0.423-2.439,1.265
		c-0.639,0.844-0.961,1.955-0.961,3.335c0,1.417,0.295,2.522,0.886,3.313c0.588,0.79,1.383,1.185,2.386,1.185
		c0.69,0,1.277-0.167,1.762-0.498v-3.063h-1.966V14.7h3.141v5.187L21.717,19.887L21.717,19.887z"/>
</g>
</svg>
