<?xml version="1.0" encoding="utf-8"?>
<!-- Generator: Adobe Illustrator 17.0.0, SVG Export Plug-In . SVG Version: 6.00 Build 0)  -->
<!DOCTYPE svg PUBLIC "-//W3C//DTD SVG 1.1//EN" "http://www.w3.org/Graphics/SVG/1.1/DTD/svg11.dtd">
<svg version="1.1"
	 id="svg2203" inkscape:output_extension="org.inkscape.output.svg.inkscape" sodipodi:version="0.32" sodipodi:docbase="D:\SVG\闂傚倸鍊风粈渚€骞栭弻娑欐償閵忕姷浠肩紓浣介哺閹告悂鏌" sodipodi:docname="闂傚倷娴囧Δ鐘叉憸缁辩偞绻濋崒婊呯＜婵℃贡缁犳岸姊洪幖鐐插姕婵＄偠妫勯悾椋庣矙鐠囩偓妫冮崺鈧柟鑻痝" inkscape:version="0.45.1" xmlns:sodipodi="http://sodipodi.sourceforge.net/DTD/sodipodi-0.dtd" xmlns:dc="http://purl.org/dc/elements/1.1/" xmlns:cc="http://web.resource.org/cc/" xmlns:inkscape="http://www.inkscape.org/namespaces/inkscape" xmlns:rdf="http://www.w3.org/1999/02/22-rdf-syntax-ns#" xmlns:svg="http://www.w3.org/2000/svg"
	 xmlns="http://www.w3.org/2000/svg" xmlns:xlink="http://www.w3.org/1999/xlink" x="0px" y="0px" width="30px" height="30px"
	 viewBox="0 0 30 30" enable-background="new 0 0 30 30" xml:space="preserve">
<sodipodi:namedview  inkscape:pageopacity="0.0" inkscape:pageshadow="2" inkscape:document-units="px" inkscape:window-x="-4" inkscape:window-y="-4" inkscape:window-width="1280" inkscape:window-height="968" inkscape:guide-bbox="true" inkscape:current-layer="layer1" showguides="true" bordercolor="#666666" inkscape:cy="646.08493" gridtolerance="10000" id="base" borderopacity="1.0" objecttolerance="10" pagecolor="#ffffff" inkscape:cx="126.79097" inkscape:zoom="0.74999999" guidetolerance="10">
	<sodipodi:guide  position="1116" orientation="vertical" id="guide22942"></sodipodi:guide>
	<sodipodi:guide  position="1147" orientation="vertical" id="guide22944"></sodipodi:guide>
</sodipodi:namedview>
<g enable-background="new    ">
	<path d="M14.501,20.68h-1.607l-3.412-5.164c-0.118-0.182-0.199-0.322-0.241-0.425H9.209v5.589H8.038V9.321h1.171v5.347h0.032
		c0.066-0.133,0.147-0.272,0.241-0.418l3.294-4.928h1.449l-3.811,5.448L14.501,20.68z"/>
	<path d="M21.962,19.901c-0.907,0.646-1.933,0.969-3.075,0.969c-1.314,0-2.372-0.521-3.176-1.559
		c-0.804-1.04-1.206-2.425-1.206-4.162c0-1.754,0.443-3.197,1.332-4.326s2.028-1.694,3.414-1.694c0.98,0,1.813,0.195,2.493,0.586
		V11.3c-0.728-0.572-1.595-0.858-2.598-0.858c-0.99,0-1.805,0.424-2.447,1.269c-0.641,0.846-0.962,1.961-0.962,3.345
		c0,1.421,0.294,2.53,0.886,3.322c0.59,0.792,1.387,1.188,2.394,1.188c0.692,0,1.281-0.167,1.766-0.499v-3.073h-1.972v-1.298h3.151
		C21.962,14.696,21.962,19.901,21.962,19.901z"/>
</g>
</svg>
