<?xml version="1.0" encoding="utf-8"?>
<!-- Generator: Adobe Illustrator 17.0.0, SVG Export Plug-In . SVG Version: 6.00 Build 0)  -->
<!DOCTYPE svg PUBLIC "-//W3C//DTD SVG 1.1//EN" "http://www.w3.org/Graphics/SVG/1.1/DTD/svg11.dtd">
<svg version="1.1"
	 id="svg2203" inkscape:output_extension="org.inkscape.output.svg.inkscape" inkscape:version="0.45.1" sodipodi:docbase="D:\SVG\闂傚倸鍊搁崐椋庣矆娓氣偓楠炴牠寮诲☉娆愬劅闁靛繒濮锋禒鑲╃磽娴ｄ粙鍝洪柟鍛婃倐閺" sodipodi:docname="闂傚倸鍊峰ù鍥旈悩鍙夋喐缂佽京鍋炵换婵嬪磼濠婂懐锛滃┑鈩冭础缂佺姵宀稿娲箹閻愭彃濮曞┑锛勫仩濡嫰鎮炬搴ｇ煓閻犲洨鍋撳Λ鍐春閳ф煙閼荤棟" sodipodi:version="0.32" xmlns:sodipodi="http://sodipodi.sourceforge.net/DTD/sodipodi-0.dtd" xmlns:cc="http://web.resource.org/cc/" xmlns:dc="http://purl.org/dc/elements/1.1/" xmlns:inkscape="http://www.inkscape.org/namespaces/inkscape" xmlns:rdf="http://www.w3.org/1999/02/22-rdf-syntax-ns#" xmlns:svg="http://www.w3.org/2000/svg"
	 xmlns="http://www.w3.org/2000/svg" xmlns:xlink="http://www.w3.org/1999/xlink" x="0px" y="0px" width="30px" height="30px"
	 viewBox="0 0 30 30" enable-background="new 0 0 30 30" xml:space="preserve">
<sodipodi:namedview  inkscape:pageshadow="2" inkscape:guide-bbox="true" inkscape:pageopacity="0.0" inkscape:document-units="px" inkscape:current-layer="layer1" inkscape:window-width="1280" inkscape:window-x="-4" inkscape:window-y="-4" inkscape:window-height="968" gridtolerance="10000" pagecolor="#ffffff" id="base" guidetolerance="10" inkscape:cx="126.79097" borderopacity="1.0" objecttolerance="10" bordercolor="#666666" inkscape:zoom="0.74999999" showguides="true" inkscape:cy="646.08493">
	<sodipodi:guide  position="1116" orientation="vertical" id="guide22942"></sodipodi:guide>
	<sodipodi:guide  position="1147" orientation="vertical" id="guide22944"></sodipodi:guide>
</sodipodi:namedview>
<rect fill="#0000FF" width="30" height="30"/>
<rect x="1.5" y="2" fill="#FFE900" width="1.203" height="6"/>
<rect x="1.5" y="12" fill="#FFE900" width="1.203" height="6"/>
<rect x="1.5" y="22" fill="#FFE900" width="1.203" height="6"/>
<rect x="3.898" y="2" fill="#FFE900" width="1.203" height="6"/>
<rect x="3.898" y="12" fill="#FFE900" width="1.203" height="6"/>
<rect x="3.898" y="22" fill="#FFE900" width="1.203" height="6"/>
<rect x="24.902" y="2" fill="#FFE900" width="1.203" height="6"/>
<rect x="24.902" y="12" fill="#FFE900" width="1.203" height="6"/>
<rect x="24.902" y="22" fill="#FFE900" width="1.203" height="6"/>
<rect x="27.301" y="2" fill="#FFE900" width="1.203" height="6"/>
<rect x="27.301" y="12" fill="#FFE900" width="1.203" height="6"/>
<rect x="27.301" y="22" fill="#FFE900" width="1.203" height="6"/>
<rect x="13.5" y="4.208" fill="#FFE900" width="3" height="21.583"/>
<polygon fill="#FFE900" points="15,5.375 18.292,8.667 19.979,6.979 15,2 10.021,6.979 11.708,8.667 "/>
<polygon fill="#FFE900" points="15,24.625 11.708,21.333 10.021,23.021 15,28 19.979,23.021 18.292,21.333 "/>
</svg>
