<?xml version="1.0" encoding="utf-8"?>
<!-- Generator: Adobe Illustrator 17.0.0, SVG Export Plug-In . SVG Version: 6.00 Build 0)  -->
<!DOCTYPE svg PUBLIC "-//W3C//DTD SVG 1.1//EN" "http://www.w3.org/Graphics/SVG/1.1/DTD/svg11.dtd">
<svg version="1.1"
	 id="svg2203" inkscape:output_extension="org.inkscape.output.svg.inkscape" sodipodi:version="0.32" sodipodi:docbase="D:\SVG\闂傚倸鍊搁崐椋庣矆娓氣偓楠炴牠寮诲☉娆愬劅闁靛繒濮锋禒鑲╃磽娴ｄ粙鍝洪柟鍛婃倐閺" sodipodi:docname="闂傚倸鍊峰ù鍥旈悩鍙夋喐缂佽京鍋炵换婵嬪磼濠婂懐锛滃┑鈩冭础缂佺姵宀稿娲箹閻愭彃濮曞┑锛勫仩濡嫰鎮炬搴ｇ煓閻犲洨鍋撳Λ鍐春閳ф煙閼荤棟" inkscape:version="0.45.1" xmlns:sodipodi="http://sodipodi.sourceforge.net/DTD/sodipodi-0.dtd" xmlns:dc="http://purl.org/dc/elements/1.1/" xmlns:cc="http://web.resource.org/cc/" xmlns:inkscape="http://www.inkscape.org/namespaces/inkscape" xmlns:rdf="http://www.w3.org/1999/02/22-rdf-syntax-ns#" xmlns:svg="http://www.w3.org/2000/svg"
	 xmlns="http://www.w3.org/2000/svg" xmlns:xlink="http://www.w3.org/1999/xlink" x="0px" y="0px" width="30px" height="30px"
	 viewBox="0 0 30 30" enable-background="new 0 0 30 30" xml:space="preserve">
<sodipodi:namedview  inkscape:pageopacity="0.0" inkscape:pageshadow="2" inkscape:document-units="px" inkscape:window-x="-4" inkscape:window-y="-4" inkscape:window-width="1280" inkscape:window-height="968" inkscape:guide-bbox="true" inkscape:current-layer="layer1" showguides="true" bordercolor="#666666" inkscape:cy="646.08493" gridtolerance="10000" id="base" borderopacity="1.0" objecttolerance="10" pagecolor="#ffffff" inkscape:cx="126.79097" inkscape:zoom="0.74999999" guidetolerance="10">
	<sodipodi:guide  position="1116" orientation="vertical" id="guide22942"></sodipodi:guide>
	<sodipodi:guide  position="1147" orientation="vertical" id="guide22944"></sodipodi:guide>
</sodipodi:namedview>
<g>
	<g>
		<path fill="#0057F9" d="M13.418,19.907v-5.438c0,0,3.764-5.401,8.686,0v5.402L13.418,19.907z"/>
		<path fill="#FFFFFF" d="M14.119,19.907l0.033-4.841c0,0,3.124-4.805,7.207,0v4.808L14.119,19.907z"/>
	</g>
	<rect x="15.228" y="14.846" fill="#0057F9" width="4.8" height="5.062"/>
	<rect x="15.89" y="15.689" fill="#FFFFFF" width="3.516" height="4.219"/>
	<g>
		<path d="M8.946,16.106v3.802h-1.05V9.736h2.314c0.877,0,1.558,0.266,2.045,0.795c0.487,0.53,0.728,1.287,0.728,2.272
			c0,0.998-0.284,1.807-0.852,2.425s-1.276,0.912-2.127,0.877L8.946,16.106L8.946,16.106z"/>
		<path fill="#FFFFFF" d="M8.946,10.892v4.058h0.973c0.644,0,1.127-0.18,1.46-0.542c0.333-0.361,0.499-0.877,0.499-1.552
			c0-1.309-0.62-1.963-1.86-1.963L8.946,10.892L8.946,10.892z"/>
	</g>
	
		<line fill="none" stroke="#0057F9" stroke-width="0.7087" stroke-miterlimit="10" x1="7.896" y1="20.264" x2="22.104" y2="20.264"/>
</g>
</svg>
