<?xml version="1.0" encoding="utf-8"?>
<!-- Generator: Adobe Illustrator 17.0.0, SVG Export Plug-In . SVG Version: 6.00 Build 0)  -->
<!DOCTYPE svg PUBLIC "-//W3C//DTD SVG 1.1//EN" "http://www.w3.org/Graphics/SVG/1.1/DTD/svg11.dtd">
<svg version="1.1"
	 id="svg2203" inkscape:output_extension="org.inkscape.output.svg.inkscape" sodipodi:version="0.32" sodipodi:docbase="D:\SVG\闂傚倸鍊搁崐椋庣矆娓氣偓楠炴牠寮诲☉娆愬劅闁靛繒濮锋禒鑲╃磽娴ｄ粙鍝洪柟鍛婃倐閺" sodipodi:docname="闂傚倸鍊峰ù鍥旈悩鍙夋喐缂佽京鍋炵换婵嬪磼濠婂懐锛滃┑鈩冭础缂佺姵宀稿娲箹閻愭彃濮曞┑锛勫仩濡嫰鎮炬搴ｇ煓閻犲洨鍋撳Λ鍐春閳ф煙閼荤棟" inkscape:version="0.45.1" xmlns:sodipodi="http://sodipodi.sourceforge.net/DTD/sodipodi-0.dtd" xmlns:dc="http://purl.org/dc/elements/1.1/" xmlns:cc="http://web.resource.org/cc/" xmlns:inkscape="http://www.inkscape.org/namespaces/inkscape" xmlns:rdf="http://www.w3.org/1999/02/22-rdf-syntax-ns#" xmlns:svg="http://www.w3.org/2000/svg"
	 xmlns="http://www.w3.org/2000/svg" xmlns:xlink="http://www.w3.org/1999/xlink" x="0px" y="0px" width="30px" height="30px"
	 viewBox="0 0 30 30" enable-background="new 0 0 30 30" xml:space="preserve">
<sodipodi:namedview  inkscape:pageopacity="0.0" inkscape:pageshadow="2" inkscape:document-units="px" inkscape:window-x="-4" inkscape:window-y="-4" inkscape:window-width="1280" inkscape:window-height="968" inkscape:guide-bbox="true" inkscape:current-layer="layer1" showguides="true" bordercolor="#666666" inkscape:cy="646.08493" gridtolerance="10000" id="base" borderopacity="1.0" objecttolerance="10" pagecolor="#ffffff" inkscape:cx="126.79097" inkscape:zoom="0.74999999" guidetolerance="10">
	<sodipodi:guide  position="1116" orientation="vertical" id="guide22942"></sodipodi:guide>
	<sodipodi:guide  position="1147" orientation="vertical" id="guide22944"></sodipodi:guide>
</sodipodi:namedview>
<g>
	<polygon fill="#1E499C" points="18.626,7.034 21.509,7.034 21.509,14.404 23.026,14.404 23.026,17.199 14.564,17.199 
		14.564,22.966 11.678,22.966 11.678,17.2 6.974,17.2 6.974,14.405 11.678,14.405 11.678,7.035 14.564,7.035 14.564,8.553 
		18.627,8.553 18.627,7.034 	"/>
	<polygon fill="#FFFFFF" points="18.626,14.404 18.626,11.413 14.563,11.413 14.563,14.404 	"/>
	<path fill="#FFFFFF" d="M14.154,9.448h5.132c0.854,0,1.424,0.569,1.424,1.327v1.814l0.002,2.482c0,0.545-0.703,1.199-1.354,1.199
		h-5.837v6.695h-0.96V16.27H9.29v0.759l-2.144-1.212l2.145-1.225v0.741h3.271l0.002-4.339C12.56,10.264,13.404,9.448,14.154,9.448
		L14.154,9.448z"/>
	<path fill="#1E499C" d="M13.477,11.352v3.982h5.725c0.233,0,0.506-0.247,0.506-0.475v-3.714c0-0.359-0.416-0.764-0.785-0.764
		h-4.521C13.949,10.382,13.477,10.911,13.477,11.352L13.477,11.352z"/>
	<path fill="#FFFFFF" d="M14.477,11.96v2.374h3.887c0.159,0,0.344-0.147,0.344-0.283v-2.214c0-0.214-0.283-0.456-0.533-0.456h-3.069
		C14.797,11.382,14.477,11.698,14.477,11.96L14.477,11.96z"/>
</g>
</svg>
