<?xml version="1.0" encoding="utf-8"?>
<!-- Generator: Adobe Illustrator 17.0.0, SVG Export Plug-In . SVG Version: 6.00 Build 0)  -->
<!DOCTYPE svg PUBLIC "-//W3C//DTD SVG 1.1//EN" "http://www.w3.org/Graphics/SVG/1.1/DTD/svg11.dtd">
<svg version="1.1"
	 id="svg2203" xmlns:inkscape="http://www.inkscape.org/namespaces/inkscape" xmlns:cc="http://web.resource.org/cc/" xmlns:dc="http://purl.org/dc/elements/1.1/" xmlns:sodipodi="http://sodipodi.sourceforge.net/DTD/sodipodi-0.dtd" xmlns:rdf="http://www.w3.org/1999/02/22-rdf-syntax-ns#" xmlns:svg="http://www.w3.org/2000/svg" sodipodi:docname="闂傚倸鍊峰ù鍥旈悩鍙夋喐缂佽京鍋炵换婵嬪磼濠婂懐锛滃┑鈩冭础缂佺姵宀稿娲箹閻愭彃濮曞┑锛勫仩濡嫰鎮炬搴ｇ煓閻犲洨鍋撳Λ鍐春閳ф煙閼荤棟" inkscape:version="0.45.1" sodipodi:version="0.32" sodipodi:docbase="D:\SVG\闂傚倸鍊搁崐椋庣矆娓氣偓楠炴牠寮诲☉娆愬劅闁靛繒濮锋禒鑲╃磽娴ｄ粙鍝洪柟鍛婃倐閺" inkscape:output_extension="org.inkscape.output.svg.inkscape"
	 xmlns="http://www.w3.org/2000/svg" xmlns:xlink="http://www.w3.org/1999/xlink" x="0px" y="0px" width="30px" height="30px"
	 viewBox="0 0 30 30" enable-background="new 0 0 30 30" xml:space="preserve">
<sodipodi:namedview  inkscape:zoom="0.74999999" objecttolerance="10" showguides="true" inkscape:cy="646.08493" gridtolerance="10000" inkscape:cx="126.79097" pagecolor="#ffffff" borderopacity="1.0" id="base" bordercolor="#666666" guidetolerance="10" inkscape:window-y="-4" inkscape:window-height="968" inkscape:pageshadow="2" inkscape:pageopacity="0.0" inkscape:guide-bbox="true" inkscape:window-width="1280" inkscape:current-layer="layer1" inkscape:window-x="-4" inkscape:document-units="px">
	<sodipodi:guide  orientation="vertical" position="1116" id="guide22942"></sodipodi:guide>
	<sodipodi:guide  orientation="vertical" position="1147" id="guide22944"></sodipodi:guide>
</sodipodi:namedview>
<g>
	<path id="path14_5_" fill="#FF0000" d="M7.618,15.001c0,4.068,3.312,7.382,7.382,7.382c4.071,0,7.382-3.313,7.382-7.382
		c0-4.071-3.311-7.385-7.382-7.385C10.93,7.617,7.618,10.93,7.618,15.001z"/>
	<path id="path14_4_" fill="#FFFFFF" d="M9.287,15.001c0,3.148,2.563,5.712,5.713,5.712c3.151,0,5.713-2.563,5.713-5.712
		c0-3.15-2.562-5.712-5.713-5.712C11.851,9.288,9.287,11.849,9.287,15.001z"/>
	
		<line id="line20" fill="none" stroke="#FF0000" stroke-width="1.7" stroke-linecap="round" stroke-linejoin="round" x1="10.475" y1="10.591" x2="19.525" y2="19.409"/>
	
		<line id="line20_2_" fill="none" stroke="#FF0000" stroke-width="1.7" stroke-linecap="round" stroke-linejoin="round" x1="19.41" y1="10.475" x2="10.591" y2="19.524"/>
</g>
</svg>
