<?xml version="1.0" encoding="utf-8"?>
<!-- Generator: Adobe Illustrator 17.0.0, SVG Export Plug-In . SVG Version: 6.00 Build 0)  -->
<!DOCTYPE svg PUBLIC "-//W3C//DTD SVG 1.1//EN" "http://www.w3.org/Graphics/SVG/1.1/DTD/svg11.dtd">
<svg version="1.1"
	 id="svg2203" inkscape:output_extension="org.inkscape.output.svg.inkscape" sodipodi:version="0.32" sodipodi:docbase="D:\SVG\闂傚倸鍊搁崐鎼佸磹妞嬪海鐭嗗〒姘ｅ亾妤犵偞鐗犲璇测槈濞嗘劕鍔呴梺闈涚箳婵攱绂掗懖鈺冪＝濞达絼绮欓崫娲煙閸涘﹥鍊愰柡" sodipodi:docname="闂傚倸鍊搁崐宄懊归崶鏃堟偐閸欏鍠愮紓浣戒含閸嬬偟鎹㈠┑瀣＜婵犲﹤鎳愰敍婊冣攽閳╁啳纭€缂備胶濮靛畝绋垮ú绠归柣鎰絻婵洖鈹戦敍鍕哗婵″閹偓鎼达絿鐓撻柣鐘叉川閸嬫挸螞閸愭槬闁逞勭厵闁艰崵妫" inkscape:version="0.45.1" xmlns:sodipodi="http://sodipodi.sourceforge.net/DTD/sodipodi-0.dtd" xmlns:dc="http://purl.org/dc/elements/1.1/" xmlns:cc="http://web.resource.org/cc/" xmlns:inkscape="http://www.inkscape.org/namespaces/inkscape" xmlns:rdf="http://www.w3.org/1999/02/22-rdf-syntax-ns#" xmlns:svg="http://www.w3.org/2000/svg"
	 xmlns="http://www.w3.org/2000/svg" xmlns:xlink="http://www.w3.org/1999/xlink" x="0px" y="0px" width="30px" height="30px"
	 viewBox="0 0 30 30" enable-background="new 0 0 30 30" xml:space="preserve">
<sodipodi:namedview  inkscape:pageopacity="0.0" inkscape:pageshadow="2" inkscape:document-units="px" inkscape:window-x="-4" inkscape:window-y="-4" inkscape:window-width="1280" inkscape:window-height="968" inkscape:guide-bbox="true" inkscape:current-layer="layer1" showguides="true" bordercolor="#666666" inkscape:cy="646.08493" gridtolerance="10000" id="base" borderopacity="1.0" objecttolerance="10" pagecolor="#ffffff" inkscape:cx="126.79097" inkscape:zoom="0.74999999" guidetolerance="10">
	<sodipodi:guide  position="1116" orientation="vertical" id="guide22942"></sodipodi:guide>
	<sodipodi:guide  position="1147" orientation="vertical" id="guide22944"></sodipodi:guide>
</sodipodi:namedview>
<g>
	<rect x="0.118" y="7.913" fill="#FFFFFF" width="29.764" height="14.173"/>
	<path d="M13.271,9.97l-2.678,10.75H9.155l-1.922-7.745c-0.087-0.354-0.138-0.724-0.156-1.11H7.055
		c-0.025,0.384-0.083,0.75-0.173,1.097l-1.943,7.76H3.512L0.741,9.972h1.364l1.951,8.12c0.087,0.363,0.138,0.731,0.154,1.103h0.038
		c0.02-0.278,0.088-0.646,0.203-1.103l2.067-8.12h1.215l1.975,8.182c0.066,0.268,0.118,0.611,0.161,1.027h0.023
		c0.021-0.303,0.081-0.653,0.18-1.057l1.876-8.153L13.271,9.97L13.271,9.97z"/>
	<path d="M21.197,20.785H14.91v-1.194h2.457v-8.326l-2.521,0.729v-1.276l3.901-1.135v10.005h2.446L21.197,20.785L21.197,20.785z"/>
	<path d="M21.721,15.517c0-1.938,0.321-3.399,0.963-4.396c0.642-0.993,1.571-1.488,2.789-1.488c2.322,0,3.483,1.874,3.483,5.62
		c0,1.852-0.327,3.267-0.98,4.244c-0.653,0.979-1.57,1.472-2.75,1.472c-1.114,0-1.977-0.468-2.588-1.396
		C22.026,18.644,21.721,17.292,21.721,15.517z"/>
	<path fill="#FFFFFF" d="M23.137,15.454c0,2.912,0.738,4.368,2.216,4.368c1.454,0,2.181-1.479,2.181-4.438
		c0-3.063-0.713-4.597-2.138-4.597C23.889,10.788,23.137,12.344,23.137,15.454z"/>
</g>
</svg>
