<?xml version="1.0" encoding="utf-8"?>
<!-- Generator: Adobe Illustrator 17.0.0, SVG Export Plug-In . SVG Version: 6.00 Build 0)  -->
<!DOCTYPE svg PUBLIC "-//W3C//DTD SVG 1.1//EN" "http://www.w3.org/Graphics/SVG/1.1/DTD/svg11.dtd">
<svg version="1.1"
	 id="svg2203" xmlns:inkscape="http://www.inkscape.org/namespaces/inkscape" xmlns:cc="http://web.resource.org/cc/" xmlns:dc="http://purl.org/dc/elements/1.1/" xmlns:sodipodi="http://sodipodi.sourceforge.net/DTD/sodipodi-0.dtd" xmlns:rdf="http://www.w3.org/1999/02/22-rdf-syntax-ns#" xmlns:svg="http://www.w3.org/2000/svg" sodipodi:docname="闂傚倸鍊搁崐宄懊归崶鏃堟偐閸欏鍠愮紓浣戒含閸嬬偟鎹㈠┑瀣＜婵犲﹤鎳愰敍婊冣攽閳╁啳纭€缂備胶濮靛畝绋垮ú绠归柣鎰絻婵洖鈹戦敍鍕哗婵″閹偓鎼达絿鐓撻柣鐘叉川閸嬫挸螞閸愭槬闁逞勭厵闁艰崵妫" inkscape:version="0.45.1" sodipodi:version="0.32" sodipodi:docbase="D:\SVG\闂傚倸鍊搁崐鎼佸磹妞嬪海鐭嗗〒姘ｅ亾妤犵偞鐗犲璇测槈濞嗘劕鍔呴梺闈涚箳婵攱绂掗懖鈺冪＝濞达絼绮欓崫娲煙閸涘﹥鍊愰柡" inkscape:output_extension="org.inkscape.output.svg.inkscape"
	 xmlns="http://www.w3.org/2000/svg" xmlns:xlink="http://www.w3.org/1999/xlink" x="0px" y="0px" width="30px" height="30px"
	 viewBox="0 0 30 30" enable-background="new 0 0 30 30" xml:space="preserve">
<sodipodi:namedview  inkscape:zoom="0.74999999" objecttolerance="10" showguides="true" inkscape:cy="646.08493" gridtolerance="10000" inkscape:cx="126.79097" pagecolor="#ffffff" borderopacity="1.0" id="base" bordercolor="#666666" guidetolerance="10" inkscape:window-y="-4" inkscape:window-height="968" inkscape:pageshadow="2" inkscape:pageopacity="0.0" inkscape:guide-bbox="true" inkscape:window-width="1280" inkscape:current-layer="layer1" inkscape:window-x="-4" inkscape:document-units="px">
	<sodipodi:guide  orientation="vertical" position="1116" id="guide22942"></sodipodi:guide>
	<sodipodi:guide  orientation="vertical" position="1147" id="guide22944"></sodipodi:guide>
</sodipodi:namedview>
<g>
	<g>
		<path id="path14_19_" fill="#FF0000" d="M4.068,15.563c0,0.631,0.514,1.144,1.144,1.144c0.631,0,1.144-0.515,1.144-1.144
			c0-0.631-0.514-1.144-1.144-1.144C4.581,14.419,4.068,14.933,4.068,15.563z"/>
		<path id="path14_20_" fill="#FF0000" d="M4.99,19.167c0,0.63,0.514,1.146,1.143,1.146c0.632,0,1.145-0.516,1.145-1.146
			c0-0.629-0.514-1.144-1.145-1.144C5.504,18.022,4.99,18.537,4.99,19.167z"/>
		<path id="path14_21_" fill="#FF0000" d="M7.079,22.096c0,0.632,0.512,1.145,1.144,1.145c0.63,0,1.144-0.513,1.144-1.145
			c0-0.631-0.514-1.144-1.144-1.144C7.591,20.951,7.079,21.464,7.079,22.096z"/>
		<path id="path14_22_" fill="#FF0000" d="M10.415,24.225c0,0.63,0.514,1.145,1.144,1.145c0.631,0,1.144-0.515,1.144-1.145
			c0-0.631-0.514-1.143-1.144-1.143C10.929,23.078,10.415,23.593,10.415,24.225z"/>
		<path id="path14_23_" fill="#FF0000" d="M18.502,23.754c0,0.631,0.516,1.144,1.145,1.144c0.631,0,1.145-0.514,1.145-1.144
			c0-0.632-0.515-1.145-1.145-1.145C19.018,22.609,18.502,23.121,18.502,23.754z"/>
		<path id="path14_24_" fill="#FF0000" d="M21.512,21.215c0,0.63,0.515,1.144,1.144,1.144c0.632,0,1.144-0.514,1.144-1.144
			c0-0.631-0.512-1.144-1.144-1.144C22.025,20.073,21.512,20.585,21.512,21.215z"/>
		<path id="path14_25_" fill="#FF0000" d="M23.375,17.631c0,0.631,0.515,1.144,1.145,1.144c0.631,0,1.144-0.513,1.144-1.144
			s-0.514-1.144-1.144-1.144S23.375,17,23.375,17.631z"/>
		<path id="path14_26_" fill="#FF0000" d="M22.33,9.933c0,0.63,0.514,1.145,1.145,1.145s1.144-0.515,1.144-1.145
			c0-0.631-0.514-1.144-1.144-1.144C22.845,8.79,22.33,9.301,22.33,9.933z"/>
		<path id="path14_27_" fill="#FF0000" d="M19.854,7.229c0,0.631,0.514,1.144,1.144,1.144c0.632,0,1.145-0.513,1.145-1.144
			s-0.514-1.144-1.145-1.144C20.368,6.085,19.854,6.599,19.854,7.229z"/>
		<path id="path14_28_" fill="#FF0000" d="M16.721,5.613c0,0.631,0.515,1.144,1.145,1.144c0.631,0,1.144-0.514,1.144-1.144
			c0-0.631-0.514-1.144-1.144-1.144C17.236,4.468,16.721,4.98,16.721,5.613z"/>
		<path id="path14_29_" fill="#FF0000" d="M13.036,5.202c0,0.631,0.514,1.144,1.144,1.144c0.631,0,1.144-0.514,1.144-1.144
			c0-0.631-0.514-1.144-1.144-1.144S13.036,4.571,13.036,5.202z"/>
		<path id="path14_30_" fill="#FF0000" d="M9.414,6.226c0,0.63,0.513,1.144,1.143,1.144c0.632,0,1.144-0.514,1.144-1.144
			c0-0.631-0.512-1.144-1.144-1.144C9.926,5.083,9.414,5.595,9.414,6.226z"/>
		<path id="path14_31_" fill="#FF0000" d="M14.796,24.798c0,0.63,0.516,1.144,1.145,1.144c0.631,0,1.144-0.514,1.144-1.144
			c0-0.631-0.515-1.144-1.144-1.144S14.796,24.167,14.796,24.798z"/>
		<path id="path14_32_" fill="#FF0000" d="M23.643,13.576c0,0.632,0.514,1.145,1.144,1.145c0.631,0,1.145-0.514,1.145-1.145
			s-0.515-1.144-1.145-1.144S23.643,12.946,23.643,13.576z"/>
		<path id="path14_33_" fill="#FF0000" d="M6.484,8.5c0,0.632,0.514,1.144,1.144,1.144c0.632,0,1.145-0.514,1.145-1.144
			c0-0.632-0.515-1.145-1.145-1.145C6.997,7.354,6.484,7.868,6.484,8.5z"/>
		<path id="path14_34_" fill="#FF0000" d="M4.681,11.611c0,0.631,0.515,1.144,1.144,1.144c0.632,0,1.144-0.514,1.144-1.144
			c0-0.632-0.515-1.144-1.144-1.144S4.681,10.98,4.681,11.611z"/>
	</g>
	<g>
		<path d="M9.541,11.373h1.718c0.279,0,0.551-0.028,0.815-0.088v0.881c-0.264-0.029-0.506-0.044-0.727-0.044H9.453
			c-0.147,0.999-0.286,1.806-0.418,2.422h1.96c0.264,0,0.521-0.014,0.771-0.044v0.881c-0.235-0.029-0.485-0.044-0.749-0.044h-0.639
			v3.303h0.903c0.353,0,0.668-0.014,0.947-0.044v0.881c-0.323-0.03-0.625-0.044-0.903-0.044H8.858c-0.308,0-0.565,0.014-0.771,0.044
			v-0.881c0.205,0.03,0.469,0.044,0.792,0.044h1.035v-3.303H8.835c-0.162,0.558-0.345,1.094-0.55,1.607
			c-0.206,0.514-0.463,1.065-0.771,1.652C7.44,18.391,7.301,18.2,7.096,18.023c0.293-0.44,0.547-0.91,0.76-1.409
			c0.212-0.499,0.422-1.124,0.627-1.872s0.375-1.622,0.507-2.621H8.417c-0.353,0-0.653,0.015-0.903,0.044v-0.881
			c0.264,0.06,0.565,0.088,0.903,0.088h0.661c0.059-0.733,0.088-1.335,0.088-1.806c0.205,0.06,0.389,0.088,0.55,0.088
			C9.659,10.037,9.6,10.61,9.541,11.373z"/>
		<path d="M15.421,10.668c-0.029,0.264-0.074,0.588-0.132,0.969h1.629c0.235,0,0.529-0.015,0.881-0.044v0.881
			c-0.264-0.029-0.565-0.044-0.903-0.044h-1.74c-0.118,0.705-0.286,1.425-0.506,2.158h2.599c-0.015,0.5-0.022,1.029-0.022,1.585
			v2.07c0,0.469,0.007,1.013,0.022,1.63h-0.484v-0.793h-2.247v0.793h-0.462c0.014-0.529,0.022-1.029,0.022-1.498v-2.158
			c-0.147,0.352-0.29,0.668-0.429,0.947c-0.14,0.28-0.297,0.566-0.474,0.859c-0.162-0.323-0.308-0.557-0.44-0.705
			c0.176-0.205,0.353-0.469,0.528-0.793c0.176-0.323,0.36-0.697,0.551-1.123c0.19-0.425,0.355-0.888,0.496-1.387
			c0.139-0.499,0.26-1.027,0.363-1.586h-0.815c-0.338,0-0.653,0.016-0.947,0.044v-0.881c0.293,0.03,0.617,0.044,0.969,0.044h0.903
			c0.132-0.822,0.212-1.512,0.242-2.07c0.19,0.118,0.374,0.206,0.55,0.264C15.502,10.126,15.451,10.404,15.421,10.668z"/>
		<rect x="14.518" y="15.38" fill="#FFFFFF" width="2.247" height="2.907"/>
		<path d="M21.037,11.153v1.85h1.255c0.293,0,0.573-0.014,0.837-0.044v0.969c-0.294-0.028-0.587-0.044-0.881-0.044h-1.211v4.448
			h1.74c0.22,0,0.477-0.014,0.771-0.044v0.925c-0.279-0.03-0.536-0.044-0.771-0.044h-3.479c-0.235,0-0.499,0.015-0.792,0.044v-0.925
			c0.278,0.03,0.542,0.044,0.792,0.044h1.277v-7.135c0-0.44-0.008-0.925-0.022-1.454h0.507
			C21.044,10.243,21.037,10.712,21.037,11.153z"/>
	</g>
</g>
</svg>
