<?xml version="1.0" encoding="utf-8"?>
<!-- Generator: Adobe Illustrator 17.0.0, SVG Export Plug-In . SVG Version: 6.00 Build 0)  -->
<!DOCTYPE svg PUBLIC "-//W3C//DTD SVG 1.1//EN" "http://www.w3.org/Graphics/SVG/1.1/DTD/svg11.dtd">
<svg version="1.1"
	 id="svg2203" xmlns:inkscape="http://www.inkscape.org/namespaces/inkscape" xmlns:cc="http://web.resource.org/cc/" xmlns:dc="http://purl.org/dc/elements/1.1/" xmlns:sodipodi="http://sodipodi.sourceforge.net/DTD/sodipodi-0.dtd" xmlns:rdf="http://www.w3.org/1999/02/22-rdf-syntax-ns#" xmlns:svg="http://www.w3.org/2000/svg" sodipodi:docname="闂傚倸鍊搁崐宄懊归崶鏃堟偐閸欏鍠愮紓浣戒含閸嬬偟鎹㈠┑瀣＜婵犲﹤鎳愰敍婊冣攽閳╁啳纭€缂備胶濮靛畝绋垮ú绠归柣鎰絻婵洖鈹戦敍鍕哗婵″閹偓鎼达絿鐓撻柣鐘叉川閸嬫挸螞閸愭槬闁逞勭厵闁艰崵妫" inkscape:version="0.45.1" sodipodi:version="0.32" sodipodi:docbase="D:\SVG\闂傚倸鍊搁崐鎼佸磹妞嬪海鐭嗗〒姘ｅ亾妤犵偞鐗犲璇测槈濞嗘劕鍔呴梺闈涚箳婵攱绂掗懖鈺冪＝濞达絼绮欓崫娲煙閸涘﹥鍊愰柡" inkscape:output_extension="org.inkscape.output.svg.inkscape"
	 xmlns="http://www.w3.org/2000/svg" xmlns:xlink="http://www.w3.org/1999/xlink" x="0px" y="0px" width="30px" height="30px"
	 viewBox="0 0 30 30" enable-background="new 0 0 30 30" xml:space="preserve">
<sodipodi:namedview  inkscape:zoom="0.74999999" objecttolerance="10" showguides="true" inkscape:cy="646.08493" gridtolerance="10000" inkscape:cx="126.79097" pagecolor="#ffffff" borderopacity="1.0" id="base" bordercolor="#666666" guidetolerance="10" inkscape:window-y="-4" inkscape:window-height="968" inkscape:pageshadow="2" inkscape:pageopacity="0.0" inkscape:guide-bbox="true" inkscape:window-width="1280" inkscape:current-layer="layer1" inkscape:window-x="-4" inkscape:document-units="px">
	<sodipodi:guide  orientation="vertical" position="1116" id="guide22942"></sodipodi:guide>
	<sodipodi:guide  orientation="vertical" position="1147" id="guide22944"></sodipodi:guide>
</sodipodi:namedview>
<g>
	<g>
		<path id="path14_19_" fill="#FF0000" d="M4.068,15.563c0,0.631,0.514,1.144,1.144,1.144c0.631,0,1.144-0.515,1.144-1.144
			c0-0.631-0.514-1.144-1.144-1.144C4.581,14.418,4.068,14.932,4.068,15.563z"/>
		<path id="path14_20_" fill="#FF0000" d="M4.99,19.167c0,0.63,0.514,1.146,1.143,1.146c0.632,0,1.145-0.516,1.145-1.146
			c0-0.629-0.514-1.144-1.145-1.144C5.504,18.022,4.99,18.537,4.99,19.167z"/>
		<path id="path14_21_" fill="#FF0000" d="M7.079,22.095c0,0.632,0.512,1.145,1.144,1.145c0.63,0,1.144-0.513,1.144-1.145
			c0-0.631-0.514-1.144-1.144-1.144C7.591,20.951,7.079,21.464,7.079,22.095z"/>
		<path id="path14_22_" fill="#FF0000" d="M10.415,24.224c0,0.63,0.514,1.145,1.144,1.145c0.631,0,1.144-0.515,1.144-1.145
			c0-0.631-0.514-1.143-1.144-1.143C10.929,23.079,10.415,23.593,10.415,24.224z"/>
		<path id="path14_23_" fill="#FF0000" d="M18.502,23.753c0,0.631,0.516,1.144,1.145,1.144c0.631,0,1.145-0.514,1.145-1.144
			c0-0.632-0.515-1.145-1.145-1.145C19.018,22.609,18.502,23.122,18.502,23.753z"/>
		<path id="path14_24_" fill="#FF0000" d="M21.512,21.216c0,0.63,0.515,1.144,1.144,1.144c0.632,0,1.144-0.514,1.144-1.144
			c0-0.631-0.512-1.144-1.144-1.144C22.025,20.072,21.512,20.585,21.512,21.216z"/>
		<path id="path14_25_" fill="#FF0000" d="M23.375,17.63c0,0.631,0.515,1.144,1.145,1.144c0.631,0,1.144-0.513,1.144-1.144
			s-0.514-1.144-1.144-1.144S23.375,16.999,23.375,17.63z"/>
		<path id="path14_26_" fill="#FF0000" d="M22.33,9.933c0,0.63,0.514,1.145,1.145,1.145s1.144-0.515,1.144-1.145
			c0-0.631-0.514-1.144-1.144-1.144S22.33,9.302,22.33,9.933z"/>
		<path id="path14_27_" fill="#FF0000" d="M19.854,7.229c0,0.631,0.514,1.144,1.144,1.144c0.632,0,1.145-0.513,1.145-1.144
			s-0.514-1.144-1.145-1.144C20.368,6.084,19.854,6.599,19.854,7.229z"/>
		<path id="path14_28_" fill="#FF0000" d="M16.721,5.612c0,0.631,0.515,1.144,1.145,1.144c0.631,0,1.144-0.514,1.144-1.144
			c0-0.631-0.514-1.144-1.144-1.144S16.721,4.981,16.721,5.612z"/>
		<path id="path14_29_" fill="#FF0000" d="M13.036,5.202c0,0.631,0.514,1.144,1.144,1.144c0.631,0,1.144-0.514,1.144-1.144
			c0-0.631-0.514-1.144-1.144-1.144S13.036,4.571,13.036,5.202z"/>
		<path id="path14_30_" fill="#FF0000" d="M9.414,6.226c0,0.63,0.513,1.144,1.143,1.144c0.632,0,1.144-0.514,1.144-1.144
			c0-0.631-0.512-1.144-1.144-1.144C9.926,5.082,9.414,5.595,9.414,6.226z"/>
		<path id="path14_31_" fill="#FF0000" d="M14.796,24.798c0,0.63,0.516,1.144,1.145,1.144c0.631,0,1.144-0.514,1.144-1.144
			c0-0.631-0.515-1.144-1.144-1.144C15.312,23.654,14.796,24.167,14.796,24.798z"/>
		<path id="path14_32_" fill="#FF0000" d="M23.643,13.576c0,0.632,0.514,1.145,1.144,1.145c0.631,0,1.145-0.514,1.145-1.145
			s-0.515-1.144-1.145-1.144C24.157,12.432,23.643,12.946,23.643,13.576z"/>
		<path id="path14_33_" fill="#FF0000" d="M6.484,8.499c0,0.632,0.514,1.144,1.144,1.144c0.632,0,1.145-0.514,1.145-1.144
			c0-0.632-0.515-1.145-1.145-1.145C6.997,7.355,6.484,7.867,6.484,8.499z"/>
		<path id="path14_34_" fill="#FF0000" d="M4.681,11.61c0,0.631,0.515,1.144,1.144,1.144c0.632,0,1.144-0.514,1.144-1.144
			c0-0.632-0.515-1.144-1.144-1.144S4.681,10.981,4.681,11.61z"/>
	</g>
	<g>
		<path d="M10.875,11.395h2.514c0.408,0,0.806-0.028,1.192-0.086v0.859c-0.387-0.028-0.741-0.043-1.063-0.043h-2.771
			c-0.215,0.974-0.419,1.762-0.612,2.363h2.868c0.387,0,0.762-0.014,1.128-0.043v0.859c-0.344-0.028-0.709-0.043-1.096-0.043H12.1
			v3.223h1.321c0.516,0,0.978-0.014,1.386-0.043V19.3c-0.473-0.029-0.914-0.043-1.321-0.043H9.877c-0.451,0-0.827,0.014-1.128,0.043
			v-0.859c0.301,0.029,0.688,0.043,1.16,0.043h1.515v-3.223H9.845c-0.237,0.544-0.505,1.067-0.806,1.568s-0.677,1.039-1.128,1.611
			c-0.108-0.2-0.312-0.387-0.612-0.559c0.43-0.43,0.8-0.888,1.112-1.375c0.311-0.487,0.617-1.096,0.918-1.826
			c0.301-0.73,0.548-1.583,0.741-2.557H9.232c-0.516,0-0.956,0.015-1.321,0.043v-0.859c0.387,0.058,0.827,0.086,1.321,0.086h0.967
			c0.085-0.716,0.129-1.303,0.129-1.762c0.301,0.058,0.569,0.086,0.806,0.086C11.047,10.092,10.961,10.65,10.875,11.395z"/>
		<path d="M19.448,11.18v1.805h1.837c0.43,0,0.838-0.014,1.225-0.043v0.945c-0.43-0.028-0.859-0.043-1.289-0.043h-1.772v4.34h2.546
			c0.322,0,0.698-0.014,1.128-0.043v0.902C22.715,19.014,22.338,19,21.995,19h-5.092c-0.344,0-0.73,0.014-1.16,0.043v-0.902
			c0.408,0.029,0.794,0.043,1.16,0.043h1.869v-6.961c0-0.43-0.011-0.902-0.032-1.418h0.741
			C19.458,10.292,19.448,10.751,19.448,11.18z"/>
	</g>
</g>
</svg>
