<?xml version="1.0" encoding="utf-8"?>
<!-- Generator: Adobe Illustrator 17.0.0, SVG Export Plug-In . SVG Version: 6.00 Build 0)  -->
<!DOCTYPE svg PUBLIC "-//W3C//DTD SVG 1.1//EN" "http://www.w3.org/Graphics/SVG/1.1/DTD/svg11.dtd">
<svg version="1.1"
	 id="svg2203" xmlns:inkscape="http://www.inkscape.org/namespaces/inkscape" xmlns:cc="http://web.resource.org/cc/" xmlns:dc="http://purl.org/dc/elements/1.1/" xmlns:sodipodi="http://sodipodi.sourceforge.net/DTD/sodipodi-0.dtd" xmlns:rdf="http://www.w3.org/1999/02/22-rdf-syntax-ns#" xmlns:svg="http://www.w3.org/2000/svg" sodipodi:docname="闂傚倸鍊搁崐鎼佸磹瀹勬噴褰掑炊閺冨牊鍋愰柛娆忛崰鎰磽娴ｆ垝鍚柛瀣仧閹广垹鈹戠€ｏ紲濠电姴锕ら幊鎰版晬濠婂啠鏀介柍鈺佸暢绾偓缂傚倷鑳舵慨闈涚暆缁嬪灝煤缁犲綊鏌ｉ幇绲诲┑娲栭埞鎴︽晬閸曞摋濠碘€抽柟鍋撻幖杈剧悼閻撴捇鏌ｉ悩鍙夊窛闁稿鎸歌灋闁告劖妲梺閫炲嫮鍘甸梺鑹板吹濡" inkscape:version="0.45.1" sodipodi:version="0.32" sodipodi:docbase="D:\SVG\闂傚倸鍊搁崐鎼佸磹閹间礁纾瑰瀣捣閻棗銆掑锝呬壕濡ょ姷鍋為悧鐘茬拠娴嬫婵炲棙鍔曢崝鍛存⒑闂堟稓绠冲┑鏀辩粋鎺楁嚃閳哄啰锛濇繛杈剧导缁瑩宕ú鐓欓柛娑橈攻閸婃劙鏌" inkscape:output_extension="org.inkscape.output.svg.inkscape"
	 xmlns="http://www.w3.org/2000/svg" xmlns:xlink="http://www.w3.org/1999/xlink" x="0px" y="0px" width="30px" height="30px"
	 viewBox="0 0 30 30" enable-background="new 0 0 30 30" xml:space="preserve">
<sodipodi:namedview  inkscape:zoom="0.74999999" objecttolerance="10" showguides="true" inkscape:cy="646.08493" gridtolerance="10000" inkscape:cx="126.79097" pagecolor="#ffffff" borderopacity="1.0" id="base" bordercolor="#666666" guidetolerance="10" inkscape:window-y="-4" inkscape:window-height="968" inkscape:pageshadow="2" inkscape:pageopacity="0.0" inkscape:guide-bbox="true" inkscape:window-width="1280" inkscape:current-layer="layer1" inkscape:window-x="-4" inkscape:document-units="px">
	<sodipodi:guide  orientation="vertical" position="1116" id="guide22942"></sodipodi:guide>
	<sodipodi:guide  orientation="vertical" position="1147" id="guide22944"></sodipodi:guide>
</sodipodi:namedview>
<g>
	<g>
		<path id="path14_19_" fill="#FF0000" d="M4.068,15.563c0,0.631,0.514,1.144,1.144,1.144c0.631,0,1.144-0.515,1.144-1.144
			c0-0.632-0.514-1.145-1.144-1.145C4.581,14.418,4.068,14.932,4.068,15.563z"/>
		<path id="path14_20_" fill="#FF0000" d="M4.99,19.167c0,0.63,0.514,1.146,1.143,1.146c0.632,0,1.145-0.517,1.145-1.146
			c0-0.629-0.514-1.144-1.145-1.144C5.504,18.022,4.99,18.537,4.99,19.167z"/>
		<path id="path14_21_" fill="#FF0000" d="M7.079,22.095c0,0.632,0.512,1.146,1.144,1.146c0.63,0,1.144-0.514,1.144-1.146
			c0-0.631-0.514-1.144-1.144-1.144C7.591,20.951,7.079,21.464,7.079,22.095z"/>
		<path id="path14_22_" fill="#FF0000" d="M10.415,24.224c0,0.63,0.514,1.146,1.144,1.146c0.631,0,1.144-0.516,1.144-1.146
			c0-0.631-0.514-1.143-1.144-1.143C10.929,23.079,10.415,23.593,10.415,24.224z"/>
		<path id="path14_23_" fill="#FF0000" d="M18.502,23.753c0,0.631,0.516,1.145,1.145,1.145c0.631,0,1.145-0.515,1.145-1.145
			c0-0.632-0.515-1.145-1.145-1.145C19.018,22.609,18.502,23.122,18.502,23.753z"/>
		<path id="path14_24_" fill="#FF0000" d="M21.512,21.216c0,0.63,0.515,1.145,1.144,1.145c0.632,0,1.144-0.515,1.144-1.145
			c0-0.631-0.512-1.144-1.144-1.144C22.025,20.072,21.512,20.585,21.512,21.216z"/>
		<path id="path14_25_" fill="#FF0000" d="M23.375,17.63c0,0.631,0.515,1.145,1.145,1.145c0.631,0,1.144-0.514,1.144-1.145
			s-0.514-1.144-1.144-1.144S23.375,16.999,23.375,17.63z"/>
		<path id="path14_26_" fill="#FF0000" d="M22.33,9.933c0,0.631,0.514,1.146,1.145,1.146s1.144-0.515,1.144-1.146
			s-0.514-1.144-1.144-1.144S22.33,9.302,22.33,9.933z"/>
		<path id="path14_27_" fill="#FF0000" d="M19.854,7.23c0,0.631,0.514,1.144,1.144,1.144c0.632,0,1.145-0.513,1.145-1.144
			c0-0.632-0.514-1.145-1.145-1.145C20.368,6.084,19.854,6.599,19.854,7.23z"/>
		<path id="path14_28_" fill="#FF0000" d="M16.721,5.612c0,0.631,0.515,1.144,1.145,1.144c0.631,0,1.144-0.514,1.144-1.144
			c0-0.631-0.514-1.145-1.144-1.145C17.236,4.468,16.721,4.981,16.721,5.612z"/>
		<path id="path14_29_" fill="#FF0000" d="M13.036,5.202c0,0.631,0.514,1.144,1.144,1.144c0.631,0,1.144-0.514,1.144-1.144
			c0-0.631-0.514-1.145-1.144-1.145S13.036,4.571,13.036,5.202z"/>
		<path id="path14_30_" fill="#FF0000" d="M9.414,6.226c0,0.631,0.513,1.145,1.143,1.145c0.632,0,1.144-0.514,1.144-1.145
			s-0.512-1.144-1.144-1.144C9.926,5.082,9.414,5.595,9.414,6.226z"/>
		<path id="path14_31_" fill="#FF0000" d="M14.796,24.798c0,0.63,0.516,1.145,1.145,1.145c0.631,0,1.144-0.515,1.144-1.145
			c0-0.631-0.515-1.144-1.144-1.144C15.312,23.654,14.796,24.167,14.796,24.798z"/>
		<path id="path14_32_" fill="#FF0000" d="M23.643,13.576c0,0.632,0.514,1.145,1.144,1.145c0.631,0,1.145-0.514,1.145-1.145
			s-0.515-1.145-1.145-1.145S23.643,12.946,23.643,13.576z"/>
		<path id="path14_33_" fill="#FF0000" d="M6.484,8.499c0,0.632,0.514,1.144,1.144,1.144c0.632,0,1.145-0.514,1.145-1.144
			c0-0.632-0.515-1.145-1.145-1.145C6.997,7.355,6.484,7.867,6.484,8.499z"/>
		<path id="path14_34_" fill="#FF0000" d="M4.681,11.61c0,0.631,0.515,1.144,1.144,1.144c0.632,0,1.144-0.514,1.144-1.144
			c0-0.633-0.515-1.145-1.144-1.145S4.681,10.981,4.681,11.61z"/>
	</g>
	<g>
		<path d="M14.709,11.844c0-0.938-0.016-1.609-0.047-2.016h1.031c-0.031,0.375-0.047,1.047-0.047,2.016h2.063
			c0.593,0,1.156-0.016,1.688-0.047v0.844c-0.532-0.031-1.094-0.047-1.688-0.047h-2.063v1.875h2.766
			c0.687,0,1.328-0.016,1.922-0.047v0.844c-0.594-0.031-1.219-0.047-1.875-0.047h-2.25c0.563,0.844,1.179,1.57,1.852,2.18
			c0.672,0.609,1.617,1.086,2.836,1.43c-0.406,0.188-0.688,0.516-0.844,0.984c-0.844-0.312-1.633-0.781-2.367-1.406
			c-0.734-0.625-1.414-1.5-2.039-2.625v3.281c0,0.593,0.016,1.141,0.047,1.641h-1.078c0.063-0.5,0.094-1.047,0.094-1.641v-3.422
			c-0.75,1.219-1.484,2.141-2.203,2.766s-1.359,1.125-1.922,1.5c-0.125-0.281-0.406-0.563-0.844-0.844
			c0.531-0.188,1.211-0.625,2.039-1.313c0.828-0.687,1.554-1.531,2.18-2.531h-2.344c-0.688,0-1.219,0.016-1.594,0.047v-0.844
			c0.469,0.031,1.031,0.047,1.688,0.047h3v-1.875h-1.969c-0.75,0-1.359,0.016-1.828,0.047v-0.844
			c0.469,0.031,1.047,0.047,1.734,0.047H14.709z"/>
	</g>
</g>
</svg>
