<?xml version="1.0" encoding="utf-8"?>
<!-- Generator: Adobe Illustrator 17.0.0, SVG Export Plug-In . SVG Version: 6.00 Build 0)  -->
<!DOCTYPE svg PUBLIC "-//W3C//DTD SVG 1.1//EN" "http://www.w3.org/Graphics/SVG/1.1/DTD/svg11.dtd">
<svg version="1.1"
	 id="svg2203" xmlns:inkscape="http://www.inkscape.org/namespaces/inkscape" xmlns:cc="http://web.resource.org/cc/" xmlns:dc="http://purl.org/dc/elements/1.1/" xmlns:sodipodi="http://sodipodi.sourceforge.net/DTD/sodipodi-0.dtd" xmlns:rdf="http://www.w3.org/1999/02/22-rdf-syntax-ns#" xmlns:svg="http://www.w3.org/2000/svg" sodipodi:docname="闂傚倸鍊搁崐宄懊归崶鏃堟偐閸欏鍠愮紓浣戒含閸嬬偟鎹㈠┑瀣＜婵犲﹤鎳愰敍婊冣攽閳╁啳纭€缂備胶濮靛畝绋垮ú绠归柣鎰絻婵洖鈹戦敍鍕哗婵″閹偓鎼达絿鐓撻柣鐘叉川閸嬫挸螞閸愭槬闁逞勭厵闁艰崵妫" inkscape:version="0.45.1" sodipodi:version="0.32" sodipodi:docbase="D:\SVG\闂傚倸鍊搁崐鎼佸磹妞嬪海鐭嗗〒姘ｅ亾妤犵偞鐗犲璇测槈濞嗘劕鍔呴梺闈涚箳婵攱绂掗懖鈺冪＝濞达絼绮欓崫娲煙閸涘﹥鍊愰柡" inkscape:output_extension="org.inkscape.output.svg.inkscape"
	 xmlns="http://www.w3.org/2000/svg" xmlns:xlink="http://www.w3.org/1999/xlink" x="0px" y="0px" width="30px" height="30px"
	 viewBox="0 0 30 30" enable-background="new 0 0 30 30" xml:space="preserve">
<sodipodi:namedview  inkscape:zoom="0.74999999" objecttolerance="10" showguides="true" inkscape:cy="646.08493" gridtolerance="10000" inkscape:cx="126.79097" pagecolor="#ffffff" borderopacity="1.0" id="base" bordercolor="#666666" guidetolerance="10" inkscape:window-y="-4" inkscape:window-height="968" inkscape:pageshadow="2" inkscape:pageopacity="0.0" inkscape:guide-bbox="true" inkscape:window-width="1280" inkscape:current-layer="layer1" inkscape:window-x="-4" inkscape:document-units="px">
	<sodipodi:guide  orientation="vertical" position="1116" id="guide22942"></sodipodi:guide>
	<sodipodi:guide  orientation="vertical" position="1147" id="guide22944"></sodipodi:guide>
</sodipodi:namedview>
<g>
	<g>
		<path id="path14_19_" fill="#FF0000" d="M4.068,15.563c0,0.631,0.514,1.144,1.144,1.144c0.631,0,1.144-0.515,1.144-1.144
			c0-0.631-0.514-1.144-1.144-1.144C4.581,14.419,4.068,14.933,4.068,15.563z"/>
		<path id="path14_20_" fill="#FF0000" d="M4.99,19.167c0,0.63,0.514,1.146,1.143,1.146c0.632,0,1.145-0.516,1.145-1.146
			c0-0.629-0.514-1.144-1.145-1.144C5.504,18.022,4.99,18.537,4.99,19.167z"/>
		<path id="path14_21_" fill="#FF0000" d="M7.079,22.096c0,0.632,0.512,1.145,1.144,1.145c0.63,0,1.144-0.513,1.144-1.145
			c0-0.631-0.514-1.144-1.144-1.144C7.591,20.951,7.079,21.464,7.079,22.096z"/>
		<path id="path14_22_" fill="#FF0000" d="M10.415,24.225c0,0.63,0.514,1.145,1.144,1.145c0.631,0,1.144-0.515,1.144-1.145
			c0-0.631-0.514-1.143-1.144-1.143C10.929,23.078,10.415,23.593,10.415,24.225z"/>
		<path id="path14_23_" fill="#FF0000" d="M18.502,23.754c0,0.631,0.516,1.144,1.145,1.144c0.631,0,1.145-0.514,1.145-1.144
			c0-0.632-0.515-1.145-1.145-1.145C19.018,22.609,18.502,23.121,18.502,23.754z"/>
		<path id="path14_24_" fill="#FF0000" d="M21.512,21.215c0,0.63,0.515,1.144,1.144,1.144c0.632,0,1.144-0.514,1.144-1.144
			c0-0.631-0.512-1.144-1.144-1.144C22.025,20.073,21.512,20.585,21.512,21.215z"/>
		<path id="path14_25_" fill="#FF0000" d="M23.375,17.631c0,0.631,0.515,1.144,1.145,1.144c0.631,0,1.144-0.513,1.144-1.144
			s-0.514-1.144-1.144-1.144S23.375,17,23.375,17.631z"/>
		<path id="path14_26_" fill="#FF0000" d="M22.33,9.933c0,0.63,0.514,1.145,1.145,1.145s1.144-0.515,1.144-1.145
			c0-0.631-0.514-1.144-1.144-1.144C22.845,8.79,22.33,9.301,22.33,9.933z"/>
		<path id="path14_27_" fill="#FF0000" d="M19.854,7.229c0,0.631,0.514,1.144,1.144,1.144c0.632,0,1.145-0.513,1.145-1.144
			s-0.514-1.144-1.145-1.144C20.368,6.085,19.854,6.599,19.854,7.229z"/>
		<path id="path14_28_" fill="#FF0000" d="M16.721,5.613c0,0.631,0.515,1.144,1.145,1.144c0.631,0,1.144-0.514,1.144-1.144
			c0-0.631-0.514-1.144-1.144-1.144C17.236,4.468,16.721,4.98,16.721,5.613z"/>
		<path id="path14_29_" fill="#FF0000" d="M13.036,5.202c0,0.631,0.514,1.144,1.144,1.144c0.631,0,1.144-0.514,1.144-1.144
			c0-0.631-0.514-1.144-1.144-1.144S13.036,4.571,13.036,5.202z"/>
		<path id="path14_30_" fill="#FF0000" d="M9.414,6.226c0,0.63,0.513,1.144,1.143,1.144c0.632,0,1.144-0.514,1.144-1.144
			c0-0.631-0.512-1.144-1.144-1.144C9.926,5.083,9.414,5.595,9.414,6.226z"/>
		<path id="path14_31_" fill="#FF0000" d="M14.796,24.798c0,0.63,0.516,1.144,1.145,1.144c0.631,0,1.144-0.514,1.144-1.144
			c0-0.631-0.515-1.144-1.144-1.144S14.796,24.167,14.796,24.798z"/>
		<path id="path14_32_" fill="#FF0000" d="M23.643,13.576c0,0.632,0.514,1.145,1.144,1.145c0.631,0,1.145-0.514,1.145-1.145
			s-0.515-1.144-1.145-1.144S23.643,12.946,23.643,13.576z"/>
		<path id="path14_33_" fill="#FF0000" d="M6.484,8.5c0,0.632,0.514,1.144,1.144,1.144c0.632,0,1.145-0.514,1.145-1.144
			c0-0.632-0.515-1.145-1.145-1.145C6.997,7.354,6.484,7.868,6.484,8.5z"/>
		<path id="path14_34_" fill="#FF0000" d="M4.681,11.611c0,0.631,0.515,1.144,1.144,1.144c0.632,0,1.144-0.514,1.144-1.144
			c0-0.632-0.515-1.144-1.144-1.144S4.681,10.98,4.681,11.611z"/>
	</g>
	<g>
		<path d="M14.708,11.103h3.656c0.593,0,1.172-0.031,1.734-0.094v0.938c-0.563-0.031-1.078-0.047-1.547-0.047H14.52
			c-0.313,1.063-0.609,1.922-0.891,2.578h4.172c0.563,0,1.109-0.016,1.641-0.047v0.938c-0.5-0.031-1.031-0.047-1.594-0.047h-1.359
			v3.516h1.922c0.75,0,1.422-0.016,2.016-0.047v0.938c-0.688-0.031-1.329-0.047-1.922-0.047h-5.25c-0.656,0-1.203,0.016-1.641,0.047
			v-0.938c0.438,0.031,1,0.047,1.688,0.047h2.203v-3.516h-2.297c-0.344,0.594-0.734,1.165-1.172,1.711
			c-0.438,0.547-0.984,1.133-1.641,1.758c-0.157-0.218-0.453-0.422-0.891-0.609c0.625-0.469,1.164-0.968,1.617-1.5
			c0.453-0.531,0.898-1.195,1.336-1.992c0.438-0.797,0.797-1.727,1.078-2.789h-1.219c-0.75,0-1.391,0.016-1.922,0.047v-0.939
			c0.563,0.063,1.203,0.094,1.922,0.094h1.406c0.125-0.781,0.188-1.422,0.188-1.922c0.438,0.063,0.828,0.094,1.172,0.094
			C14.958,9.681,14.832,10.291,14.708,11.103z"/>
	</g>
</g>
</svg>
