<?xml version="1.0" encoding="utf-8"?>
<!-- Generator: Adobe Illustrator 17.0.0, SVG Export Plug-In . SVG Version: 6.00 Build 0)  -->
<!DOCTYPE svg PUBLIC "-//W3C//DTD SVG 1.1//EN" "http://www.w3.org/Graphics/SVG/1.1/DTD/svg11.dtd">
<svg version="1.1"
	 id="svg2203" xmlns:inkscape="http://www.inkscape.org/namespaces/inkscape" xmlns:cc="http://web.resource.org/cc/" xmlns:dc="http://purl.org/dc/elements/1.1/" xmlns:sodipodi="http://sodipodi.sourceforge.net/DTD/sodipodi-0.dtd" xmlns:rdf="http://www.w3.org/1999/02/22-rdf-syntax-ns#" xmlns:svg="http://www.w3.org/2000/svg" sodipodi:docname="闂傚倸鍊搁崐鎼佸磹閹间礁纾归柟闂寸绾惧湱鈧懓瀚崳纾嬨亹閹烘垹鍊為梺鍝勫暙閻楀﹪宕戦幇鐗堢厱婵炲棗绻樺畷浼村箛绾捐棄霉閿濆棗鐏婇柛姘厱閻庯絼鎴烽梺鐟扮畭閸ㄥ綊鍩為幋鐘亾閿濆繒搴婂┑鐘垫暩婵挳鏁冮妶澶婄疇闁规壆澧楅弲绻濇繝鍌氭殜闁衡偓娴犲鐓冮柍杞扮閺嗐垻鐥崑鎾剁磽閸屾艾鈧兘鎳楅懜鍨弿闂傚牊绋撻弳鍡欑磼鐎ｄ虎閻撱倗绱掗悩鑼Ш闁哄矉缍侀獮鍥╁緤鐠囨祴鏀芥繛鍙夌墵閸╃偤骞嬮敂鑺ユ珫闂佸憡娲栭幗瀣節绾版ǚ鍋撻幎鑺ョ厵闁稿鎹囬獮鏍ㄦ綇閸撗勫仹闂佺粯鎸婚幑鍥蓟閿濆鍋愰柛娆忕粣娑㈡⒑缁嬪潡骞愬宀€浜遍梻浣告啞閸旀牕危濮婃椽鏌呴悙鎻掗柛妯兼暬濮婃椽鎳濋弶鍨優濠" inkscape:version="0.45.1" sodipodi:version="0.32" sodipodi:docbase="D:\SVG\闂傚倸鍊搁崐鎼佸磹閹间礁纾归柟闂寸绾惧綊鏌熼梻瀵哥痪鍓ф嚀閻庯絾宕抽梺缁橀柕鍡樺笒闁挎繂鎳嶆竟鏇熶繆閵堝洤啸闁稿鍋ら幃褔鎮╅懠瀚氭繛鏉戞繝鐢靛仜濡瑩宕濋弴銏犵闁告稑鐡ㄩ埛鎴︽⒒閸喓銆掔紒鐘插暱閳规垿寮ㄦ潏鈺冪焿闁圭儤閸ゅ啴鏌嶉崫鍕殶闁挎稒绻冪换娑欐綇閸撗冪紓浣烘噰鐎规毝娲偂濞嗘挻鐓曟繛鎴烇公閺€濠氭煕婵犲啫濮嶉柡" inkscape:output_extension="org.inkscape.output.svg.inkscape"
	 xmlns="http://www.w3.org/2000/svg" xmlns:xlink="http://www.w3.org/1999/xlink" x="0px" y="0px" width="30px" height="30px"
	 viewBox="0 0 30 30" enable-background="new 0 0 30 30" xml:space="preserve">
<sodipodi:namedview  inkscape:zoom="0.74999999" objecttolerance="10" showguides="true" inkscape:cy="646.08493" gridtolerance="10000" inkscape:cx="126.79097" pagecolor="#ffffff" borderopacity="1.0" id="base" bordercolor="#666666" guidetolerance="10" inkscape:window-y="-4" inkscape:window-height="968" inkscape:pageshadow="2" inkscape:pageopacity="0.0" inkscape:guide-bbox="true" inkscape:window-width="1280" inkscape:current-layer="layer1" inkscape:window-x="-4" inkscape:document-units="px">
	<sodipodi:guide  orientation="vertical" position="1116" id="guide22942"></sodipodi:guide>
	<sodipodi:guide  orientation="vertical" position="1147" id="guide22944"></sodipodi:guide>
</sodipodi:namedview>
<g>
	<g>
		<rect x="6.687" y="7.265" fill="#066693" width="16.144" height="7.601"/>
		<rect x="6.669" y="8.312" fill="#B4B4B4" width="16.195" height="5.506"/>
		<g>
			<path d="M7.094,11.469h3.181v-0.808H7.094V11.469z"/>
			<path d="M13.353,11.469h3.18v-0.808h-3.18V11.469z"/>
			<path d="M19.616,11.469h3.183v-0.808h-3.183V11.469z"/>
		</g>
	</g>
	<rect x="6.687" y="12.86" fill="#FFFFFF" stroke="#808080" stroke-width="0.6" width="8.75" height="9.875"/>
	<g>
		<path id="path14_5_" fill="#FF0000" d="M13.353,14.808c0,2.75,2.238,4.989,4.989,4.989s4.989-2.239,4.989-4.989
			c0-2.752-2.238-4.991-4.989-4.991C15.591,9.818,13.353,12.056,13.353,14.808z"/>
		<path id="path14_4_" fill="#FFFFFF" d="M14.03,14.808c0,2.377,1.935,4.311,4.313,4.311c2.377,0,4.312-1.935,4.312-4.311
			c0-2.378-1.934-4.311-4.312-4.311C15.965,10.496,14.03,12.429,14.03,14.808z"/>
		
			<line id="line20" fill="none" stroke="#FF0000" stroke-width="0.8504" stroke-linecap="round" stroke-linejoin="round" x1="15.284" y1="11.828" x2="21.4" y2="17.788"/>
		
			<line id="line20_2_" fill="none" stroke="#FF0000" stroke-width="0.8504" stroke-linecap="round" stroke-linejoin="round" x1="21.323" y1="11.75" x2="15.362" y2="17.865"/>
	</g>
	<polygon fill="#FFAB08" points="9.043,20.365 8.431,20.241 8.529,19.685 7.808,19.685 7.878,19.172 8.155,18.853 7.641,18.769 
		7.641,18.298 8.974,18.603 9.723,18.2 9.529,17.825 8.919,17.465 8.14,17.714 7.641,17.756 7.641,17.229 8.072,17.09 7.822,16.786 
		7.781,16.285 8.529,16.285 8.558,15.632 8.974,15.632 9.099,16.272 9.294,16.855 10.64,17.576 10.64,16.174 9.848,15.454 
		9.82,15.037 10.07,14.966 10.64,15.175 10.888,14.649 11.081,14.524 11.375,14.649 11.554,15.203 12.041,14.953 12.345,15.078 
		12.345,15.438 11.514,16.201 11.514,17.59 12.915,16.772 13.262,15.675 13.595,15.691 13.595,16.244 14.33,16.313 14.33,16.758 
		14.15,17.061 14.483,17.356 14.483,17.756 14.206,17.908 13.331,17.444 12.401,17.964 12.43,18.118 13.235,18.452 13.817,18.356 
		14.483,18.27 14.414,18.853 14.095,18.964 14.428,19.312 14.344,19.797 13.609,19.823 13.484,20.365 13.095,20.311 12.887,19.338 
		11.458,18.368 11.486,19.768 12.345,20.741 12.319,21.032 11.874,21.129 11.597,20.754 11.347,21.365 10.876,21.489 10.625,20.92 
		10.446,20.796 10.139,21.116 9.737,21.017 9.765,20.56 10.584,19.768 10.625,18.368 9.335,19.144 9.154,19.727 	"/>
</g>
</svg>
