<?xml version="1.0" encoding="utf-8"?>
<!-- Generator: Adobe Illustrator 15.0.0, SVG Export Plug-In . SVG Version: 6.00 Build 0)  -->
<!DOCTYPE svg PUBLIC "-//W3C//DTD SVG 1.1//EN" "http://www.w3.org/Graphics/SVG/1.1/DTD/svg11.dtd">
<svg version="1.1"
	 id="svg2203" sodipodi:docbase="D:\SVG\闂傚倸鍊搁崐椋庣矆娓氣偓楠炴牠寮诲☉娆愬劅闁靛繒濮锋禒鑲╃磽娴ｄ粙鍝洪柟鍛婃倐閺" sodipodi:version="0.32" inkscape:version="0.45.1" sodipodi:docname="闂傚倸鍊峰ù鍥旈悩鍙夋喐缂佽京鍋炵换婵嬪磼濠婂懐锛滃┑鈩冭础缂佺姵宀稿娲箹閻愭彃濮曞┑锛勫仩濡嫰鎮炬搴ｇ煓閻犲洨鍋撳Λ鍐春閳ф煙閼荤棟" xmlns:cc="http://web.resource.org/cc/" xmlns:rdf="http://www.w3.org/1999/02/22-rdf-syntax-ns#" xmlns:svg="http://www.w3.org/2000/svg" xmlns:sodipodi="http://sodipodi.sourceforge.net/DTD/sodipodi-0.dtd" xmlns:inkscape="http://www.inkscape.org/namespaces/inkscape" xmlns:dc="http://purl.org/dc/elements/1.1/" inkscape:output_extension="org.inkscape.output.svg.inkscape"
	 xmlns="http://www.w3.org/2000/svg" xmlns:xlink="http://www.w3.org/1999/xlink" x="0px" y="0px" width="744.094px"
	 height="1052.363px" viewBox="0 0 744.094 1052.363" enable-background="new 0 0 744.094 1052.363" xml:space="preserve">
<sodipodi:namedview  id="base" inkscape:guide-bbox="true" inkscape:pageopacity="0.0" inkscape:pageshadow="2" inkscape:document-units="px" inkscape:current-layer="layer1" inkscape:window-width="1280" inkscape:window-height="968" inkscape:window-y="-4" inkscape:window-x="-4" pagecolor="#ffffff" bordercolor="#666666" objecttolerance="10" inkscape:cy="646.08493" borderopacity="1.0" inkscape:zoom="0.74999999" showguides="true" guidetolerance="10" inkscape:cx="126.79097" gridtolerance="10000">
	<sodipodi:guide  id="guide22942" orientation="vertical" position="1116"></sodipodi:guide>
	<sodipodi:guide  id="guide22944" orientation="vertical" position="1147"></sodipodi:guide>
</sodipodi:namedview>
<g>
	<path d="M79.119,124.681h-1.21l-1.318-2.939c-0.263-0.588-0.504-0.988-0.723-1.2s-0.48-0.318-0.784-0.318h-0.738v4.457H73.32
		v-10.589h2.42c0.772,0,1.377,0.249,1.815,0.745s0.656,1.192,0.656,2.085c0,1.467-0.588,2.42-1.764,2.857v0.034
		c0.219,0.123,0.408,0.298,0.566,0.526c0.159,0.228,0.365,0.618,0.618,1.169L79.119,124.681z"/>
	<path fill="#FFFFFF" d="M74.346,115.289v3.739h1.21c0.468,0,0.849-0.182,1.141-0.547c0.292-0.365,0.438-0.843,0.438-1.436
		c0-0.551-0.133-0.982-0.4-1.292s-0.655-0.465-1.164-0.465H74.346z"/>
	<path d="M79.806,122.692c0.243,0.283,0.567,0.515,0.974,0.697s0.793,0.273,1.159,0.273c1.114,0,1.671-0.529,1.671-1.586
		c0-0.296-0.06-0.563-0.179-0.8c-0.12-0.237-0.284-0.447-0.492-0.629c-0.209-0.182-0.6-0.462-1.174-0.841
		c-0.796-0.529-1.321-1.02-1.574-1.473c-0.253-0.454-0.38-0.972-0.38-1.555c0-0.879,0.265-1.577,0.795-2.092
		s1.198-0.772,2.005-0.772c0.789,0,1.369,0.127,1.738,0.383v1.49c-0.479-0.442-1.083-0.663-1.815-0.663
		c-0.485,0-0.881,0.136-1.187,0.407c-0.306,0.271-0.458,0.648-0.458,1.131c0,0.428,0.105,0.777,0.317,1.046s0.672,0.636,1.379,1.101
		c0.779,0.497,1.324,0.994,1.635,1.49s0.467,1.055,0.467,1.675c0,0.93-0.253,1.643-0.759,2.14s-1.208,0.745-2.107,0.745
		c-0.314,0-0.681-0.058-1.1-0.174c-0.418-0.116-0.724-0.261-0.915-0.434V122.692z"/>
	<path d="M85.984,114.455c0-0.237,0.061-0.437,0.182-0.598c0.122-0.162,0.271-0.243,0.449-0.243c0.181,0,0.334,0.08,0.459,0.239
		c0.125,0.16,0.187,0.36,0.187,0.602c0,0.237-0.063,0.434-0.187,0.591c-0.125,0.157-0.278,0.236-0.459,0.236
		s-0.332-0.079-0.451-0.236S85.984,114.692,85.984,114.455z M86.102,124.681v-7.561h1.005v7.561H86.102z"/>
	<path d="M93.823,124.046c0,2.798-1.019,4.197-3.056,4.197c-0.705,0-1.316-0.175-1.836-0.526v-1.292
		c0.632,0.469,1.239,0.704,1.82,0.704c1.377,0,2.066-0.966,2.066-2.898v-0.8h-0.021c-0.431,0.953-1.074,1.429-1.928,1.429
		c-0.711,0-1.28-0.339-1.708-1.019s-0.641-1.579-0.641-2.7c0-1.29,0.236-2.312,0.708-3.066s1.1-1.131,1.887-1.131
		c0.755,0,1.315,0.401,1.682,1.203h0.021v-1.025h1.005V124.046z"/>
	<path fill="#FFFFFF" d="M92.818,120.183c0.003-0.583-0.144-1.084-0.441-1.504c-0.297-0.419-0.663-0.629-1.097-0.629
		c-0.547,0-0.973,0.268-1.277,0.803s-0.457,1.271-0.457,2.205c0,0.802,0.147,1.452,0.441,1.948c0.293,0.497,0.683,0.745,1.169,0.745
		c0.488,0,0.888-0.237,1.199-0.711s0.465-1.076,0.462-1.805V120.183z"/>
	<path d="M100.411,124.681h-1v-4.3c0-1.554-0.425-2.331-1.276-2.331c-0.441,0-0.803,0.219-1.087,0.656s-0.426,0.991-0.426,1.661
		v4.313h-1.005v-7.561h1.005v1.251h0.021c0.427-0.953,1.048-1.429,1.861-1.429c0.622,0,1.095,0.266,1.42,0.796
		s0.487,1.305,0.487,2.321V124.681z"/>
</g>
</svg>
