<?xml version="1.0" encoding="utf-8"?>
<!-- Generator: Adobe Illustrator 17.0.0, SVG Export Plug-In . SVG Version: 6.00 Build 0)  -->
<!DOCTYPE svg PUBLIC "-//W3C//DTD SVG 1.1//EN" "http://www.w3.org/Graphics/SVG/1.1/DTD/svg11.dtd">
<svg version="1.1"
	 id="svg2203" xmlns:sodipodi="http://sodipodi.sourceforge.net/DTD/sodipodi-0.dtd" xmlns:cc="http://web.resource.org/cc/" xmlns:dc="http://purl.org/dc/elements/1.1/" xmlns:inkscape="http://www.inkscape.org/namespaces/inkscape" xmlns:rdf="http://www.w3.org/1999/02/22-rdf-syntax-ns#" xmlns:svg="http://www.w3.org/2000/svg" sodipodi:version="0.32" sodipodi:docname="闂傚倷娴囧Δ鐘叉憸缁辩偞绻濋崒婊呯＜婵℃贡缁犳岸姊洪幖鐐插姕婵＄偠妫勯悾椋庣矙鐠囩偓妫冮崺鈧柟鑻痝" sodipodi:docbase="D:\SVG\闂傚倸鍊风粈渚€骞栭弻娑欐償閵忕姷浠肩紓浣介哺閹告悂鏌" inkscape:version="0.45.1" inkscape:output_extension="org.inkscape.output.svg.inkscape"
	 xmlns="http://www.w3.org/2000/svg" xmlns:xlink="http://www.w3.org/1999/xlink" x="0px" y="0px" width="30px" height="30px"
	 viewBox="0 0 30 30" enable-background="new 0 0 30 30" xml:space="preserve">
<sodipodi:namedview  inkscape:cy="646.08493" showguides="true" inkscape:zoom="0.74999999" bordercolor="#666666" objecttolerance="10" borderopacity="1.0" inkscape:cx="126.79097" guidetolerance="10" id="base" pagecolor="#ffffff" gridtolerance="10000" inkscape:window-height="968" inkscape:window-y="-4" inkscape:window-x="-4" inkscape:window-width="1280" inkscape:current-layer="layer1" inkscape:document-units="px" inkscape:pageopacity="0.0" inkscape:guide-bbox="true" inkscape:pageshadow="2">
	<sodipodi:guide  orientation="vertical" position="1116" id="guide22942"></sodipodi:guide>
	<sodipodi:guide  orientation="vertical" position="1147" id="guide22944"></sodipodi:guide>
</sodipodi:namedview>
<rect x="13.75" y="5.5" fill="#0000FF" width="2.5" height="19"/>
<rect x="0" y="13.75" fill="#0000FF" width="30" height="2.5"/>
<g>
	<path fill="none" d="M10.719,12.5c-1.381,0-2.5,1.119-2.5,2.5h5C13.219,13.619,12.099,12.5,10.719,12.5z"/>
	<path fill="none" d="M10.719,17.5c1.381,0,2.5-1.119,2.5-2.5h-5C8.219,16.381,9.338,17.5,10.719,17.5z"/>
	<path fill="#0000FF" d="M11.25,8.75c-2.761,0-5,2.239-5,5h1.672v-0.828h0.98c0.343-0.971,1.26-1.672,2.348-1.672
		c1.381,0,2.5,1.119,2.5,2.5h2.5C16.25,10.989,14.011,8.75,11.25,8.75z"/>
	<path fill="#0000FF" d="M7.797,11.25v0.906H6.496c-0.364,0.931-1.264,1.594-2.324,1.594v2.5c2.761,0,5-2.239,5-5H7.797z"/>
</g>
<g>
	<path fill="#0000FF" d="M23.524,16.25h-1.941v-1.886c-2.524,1.179-4.762,2.87-6.583,4.938v4.218
		C16.96,20.254,19.952,17.681,23.524,16.25z"/>
</g>
</svg>
