<?xml version="1.0" encoding="utf-8"?>
<!-- Generator: Adobe Illustrator 17.0.0, SVG Export Plug-In . SVG Version: 6.00 Build 0)  -->
<!DOCTYPE svg PUBLIC "-//W3C//DTD SVG 1.1//EN" "http://www.w3.org/Graphics/SVG/1.1/DTD/svg11.dtd">
<svg version="1.1"
	 id="svg2203" xmlns:cc="http://web.resource.org/cc/" xmlns:sodipodi="http://sodipodi.sourceforge.net/DTD/sodipodi-0.dtd" xmlns:svg="http://www.w3.org/2000/svg" xmlns:rdf="http://www.w3.org/1999/02/22-rdf-syntax-ns#" xmlns:inkscape="http://www.inkscape.org/namespaces/inkscape" xmlns:dc="http://purl.org/dc/elements/1.1/" inkscape:output_extension="org.inkscape.output.svg.inkscape" inkscape:version="0.45.1" sodipodi:docbase="D:\SVG\闂傚倸鍊风粈渚€骞栭弻娑欐償閵忕姷浠肩紓浣介哺閹告悂鏌" sodipodi:docname="闂傚倷娴囧Δ鐘叉憸缁辩偞绻濋崒婊呯＜婵℃贡缁犳岸姊洪幖鐐插姕婵＄偠妫勯悾椋庣矙鐠囩偓妫冮崺鈧柟鑻痝" sodipodi:version="0.32"
	 xmlns="http://www.w3.org/2000/svg" xmlns:xlink="http://www.w3.org/1999/xlink" x="0px" y="0px" width="30px" height="30px"
	 viewBox="0 0 30 30" enable-background="new 0 0 30 30" xml:space="preserve">
<sodipodi:namedview  objecttolerance="10" gridtolerance="10000" pagecolor="#ffffff" inkscape:cx="126.79097" borderopacity="1.0" bordercolor="#666666" inkscape:cy="646.08493" guidetolerance="10" id="base" inkscape:zoom="0.74999999" showguides="true" inkscape:pageshadow="2" inkscape:guide-bbox="true" inkscape:pageopacity="0.0" inkscape:document-units="px" inkscape:current-layer="layer1" inkscape:window-width="1280" inkscape:window-x="-4" inkscape:window-y="-4" inkscape:window-height="968">
	<sodipodi:guide  orientation="vertical" position="1116" id="guide22942"></sodipodi:guide>
	<sodipodi:guide  orientation="vertical" position="1147" id="guide22944"></sodipodi:guide>
</sodipodi:namedview>
<g>
	<rect x="8.701" y="11.11" fill="#003CFF" width="12.574" height="1.543"/>
	<rect x="12.794" y="7.151" fill="#003CFF" width="1.563" height="15.699"/>
	<path id="path2214_2_" sodipodi:nodetypes="ccccccccccszcc" fill="#003CFF" d="M15.021,16.801c0.748-0.243,1.966-0.295,1.966-0.295
		l2.05,0.008l-1.944-2.357l1.756-0.042l2.45,3.066l-2.446,3.142l-1.87-0.047l2.13-2.507l-2.26-0.011c0,0-1.103-0.005-1.871,0.535
		c-0.767,0.539-0.796,1.623-0.8,1.885c-0.003,0.265-1.565-0.766-1.31-1.23C13.315,17.889,13.949,17.146,15.021,16.801z"/>
</g>
</svg>
