<?xml version="1.0" encoding="utf-8"?>
<!-- Generator: Adobe Illustrator 17.0.0, SVG Export Plug-In . SVG Version: 6.00 Build 0)  -->
<!DOCTYPE svg PUBLIC "-//W3C//DTD SVG 1.1//EN" "http://www.w3.org/Graphics/SVG/1.1/DTD/svg11.dtd">
<svg version="1.1"
	 id="svg2203" inkscape:output_extension="org.inkscape.output.svg.inkscape" sodipodi:version="0.32" sodipodi:docbase="D:\SVG\闂傚倸鍊风粈渚€骞栭弻娑欐償閵忕姷浠肩紓浣介哺閹告悂鏌" sodipodi:docname="闂傚倷娴囧Δ鐘叉憸缁辩偞绻濋崒婊呯＜婵℃贡缁犳岸姊洪幖鐐插姕婵＄偠妫勯悾椋庣矙鐠囩偓妫冮崺鈧柟鑻痝" inkscape:version="0.45.1" xmlns:sodipodi="http://sodipodi.sourceforge.net/DTD/sodipodi-0.dtd" xmlns:dc="http://purl.org/dc/elements/1.1/" xmlns:cc="http://web.resource.org/cc/" xmlns:inkscape="http://www.inkscape.org/namespaces/inkscape" xmlns:rdf="http://www.w3.org/1999/02/22-rdf-syntax-ns#" xmlns:svg="http://www.w3.org/2000/svg"
	 xmlns="http://www.w3.org/2000/svg" xmlns:xlink="http://www.w3.org/1999/xlink" x="0px" y="0px" width="30px" height="30px"
	 viewBox="0 0 30 30" enable-background="new 0 0 30 30" xml:space="preserve">
<sodipodi:namedview  inkscape:pageopacity="0.0" inkscape:pageshadow="2" inkscape:document-units="px" inkscape:window-x="-4" inkscape:window-y="-4" inkscape:window-width="1280" inkscape:window-height="968" inkscape:guide-bbox="true" inkscape:current-layer="layer1" showguides="true" bordercolor="#666666" inkscape:cy="646.08493" gridtolerance="10000" id="base" borderopacity="1.0" objecttolerance="10" pagecolor="#ffffff" inkscape:cx="126.79097" inkscape:zoom="0.74999999" guidetolerance="10">
	<sodipodi:guide  position="1116" orientation="vertical" id="guide22942"></sodipodi:guide>
	<sodipodi:guide  position="1147" orientation="vertical" id="guide22944"></sodipodi:guide>
</sodipodi:namedview>
<g>
	<rect x="9.754" y="9.93" fill="#005447" width="0.851" height="0.851"/>
	<rect x="6.989" y="9.93" fill="#005447" width="0.853" height="0.851"/>
	<rect x="8.844" y="10.97" fill="#005447" width="0.85" height="0.852"/>
	<rect x="10.558" y="10.97" fill="#005447" width="0.849" height="0.852"/>
	<rect x="14.796" y="9.93" fill="#005447" width="0.851" height="0.851"/>
	<rect x="12.031" y="9.93" fill="#005447" width="0.853" height="0.851"/>
	<rect x="13.886" y="10.97" fill="#005447" width="0.851" height="0.852"/>
	<rect x="15.6" y="10.97" fill="#005447" width="0.85" height="0.852"/>
	<rect x="19.834" y="9.93" fill="#005447" width="0.853" height="0.851"/>
	<rect x="17.07" y="9.93" fill="#005447" width="0.851" height="0.851"/>
	<rect x="18.926" y="10.97" fill="#005447" width="0.851" height="0.852"/>
	<rect x="20.641" y="10.97" fill="#005447" width="0.846" height="0.852"/>
	<rect x="21.86" y="10.136" fill="#005447" width="0.848" height="0.852"/>
	<rect x="9.09" y="11.945" fill="#005447" width="0.851" height="0.851"/>
	<rect x="7.081" y="12.005" fill="#005447" width="0.85" height="0.852"/>
	<rect x="14.132" y="11.945" fill="#005447" width="0.851" height="0.851"/>
	<rect x="11.367" y="11.945" fill="#005447" width="0.853" height="0.852"/>
	<rect x="16.406" y="11.945" fill="#005447" width="0.851" height="0.852"/>
	<rect x="21.448" y="11.945" fill="#005447" width="0.852" height="0.852"/>
	<polygon fill="#005447" points="7.814,21.194 9.417,19.646 11.019,21.194 11.781,21.194 13.385,19.646 14.988,21.194 
		15.751,21.194 17.353,19.646 18.956,21.194 19.718,21.194 21.322,19.646 22.924,21.194 23.012,21.194 23.012,20.592 21.673,19.308 
		23.012,18.014 23.012,16.785 21.659,15.491 23.012,14.183 23.012,13.687 22.852,13.687 21.316,15.166 19.777,13.687 19.553,13.687 
		19.113,13.687 18.885,13.687 17.348,15.164 15.811,13.687 15.588,13.687 15.147,13.687 14.923,13.687 13.385,15.164 11.846,13.687 
		11.618,13.687 11.178,13.687 10.952,13.687 9.415,15.162 7.877,13.687 7.213,13.687 9.074,15.488 7.429,17.066 6.988,16.642 
		6.988,17.303 7.087,17.398 6.988,17.491 6.988,18.158 7.43,17.729 9.064,19.306 7.43,20.87 6.988,20.452 6.988,21.132 
		7.051,21.193 	"/>
	<polygon fill="#FFFFFF" points="11.398,20.874 9.765,19.309 11.398,17.732 13.03,19.309 	"/>
	<polygon fill="#FFFFFF" points="15.365,20.874 13.731,19.309 15.363,17.732 16.997,19.309 	"/>
	<polygon fill="#FFFFFF" points="19.327,20.874 17.695,19.309 19.329,17.734 20.961,19.309 	"/>
	<polygon fill="#FFFFFF" points="21.312,15.817 22.949,17.399 21.312,18.971 19.672,17.399 	"/>
	<polygon fill="#FFFFFF" points="19.329,13.9 20.973,15.488 19.329,17.068 17.683,15.488 	"/>
	<polygon fill="#FFFFFF" points="18.985,17.399 17.344,18.971 15.706,17.399 17.346,15.817 	"/>
	<polygon fill="#FFFFFF" points="15.365,13.901 17.01,15.488 15.364,17.066 13.719,15.491 	"/>
	<polygon fill="#FFFFFF" points="15.018,17.399 13.38,18.971 11.743,17.399 13.381,15.817 	"/>
	<polygon fill="#FFFFFF" points="11.398,13.901 13.044,15.488 11.398,17.068 9.753,15.488 	"/>
	<polygon fill="#FFFFFF" points="7.777,17.399 9.417,15.817 11.055,17.399 9.417,18.971 	"/>
	<rect x="19.17" y="11.945" fill="#005447" width="0.853" height="0.851"/>
	<rect x="7.004" y="8.806" fill="#F26E00" width="16" height="1.014"/>
	<rect x="7.004" y="12.795" fill="#F26E00" width="16" height="1.014"/>
</g>
</svg>
