<?xml version="1.0" encoding="utf-8"?>
<!-- Generator: Adobe Illustrator 17.0.0, SVG Export Plug-In . SVG Version: 6.00 Build 0)  -->
<!DOCTYPE svg PUBLIC "-//W3C//DTD SVG 1.1//EN" "http://www.w3.org/Graphics/SVG/1.1/DTD/svg11.dtd">
<svg version="1.1"
	 id="svg2203" xmlns:dc="http://purl.org/dc/elements/1.1/" xmlns:rdf="http://www.w3.org/1999/02/22-rdf-syntax-ns#" xmlns:svg="http://www.w3.org/2000/svg" xmlns:cc="http://web.resource.org/cc/" xmlns:sodipodi="http://sodipodi.sourceforge.net/DTD/sodipodi-0.dtd" xmlns:inkscape="http://www.inkscape.org/namespaces/inkscape" inkscape:output_extension="org.inkscape.output.svg.inkscape" inkscape:version="0.45.1" sodipodi:docbase="D:\SVG\闂傚倸鍊搁崐椋庣矆娓氣偓楠炴牠寮诲☉娆愬劅闁靛繒濮锋禒鑲╃磽娴ｄ粙鍝洪柟鍛婃倐閺" sodipodi:docname="闂傚倸鍊峰ù鍥旈悩鍙夋喐缂佽京鍋炵换婵嬪磼濠婂懐锛滃┑鈩冭础缂佺姵宀稿娲箹閻愭彃濮曞┑锛勫仩濡嫰鎮炬搴ｇ煓閻犲洨鍋撳Λ鍐春閳ф煙閼荤棟" sodipodi:version="0.32"
	 xmlns="http://www.w3.org/2000/svg" xmlns:xlink="http://www.w3.org/1999/xlink" x="0px" y="0px" width="30px" height="30px"
	 viewBox="0 0 30 30" enable-background="new 0 0 30 30" xml:space="preserve">
<sodipodi:namedview  guidetolerance="10" gridtolerance="10000" inkscape:cx="126.79097" id="base" borderopacity="1.0" inkscape:cy="646.08493" showguides="true" inkscape:zoom="0.74999999" pagecolor="#ffffff" bordercolor="#666666" objecttolerance="10" inkscape:pageshadow="2" inkscape:guide-bbox="true" inkscape:pageopacity="0.0" inkscape:document-units="px" inkscape:current-layer="layer1" inkscape:window-width="1280" inkscape:window-x="-4" inkscape:window-y="-4" inkscape:window-height="968">
	<sodipodi:guide  orientation="vertical" position="1116" id="guide22942"></sodipodi:guide>
	<sodipodi:guide  orientation="vertical" position="1147" id="guide22944"></sodipodi:guide>
</sodipodi:namedview>
<g>
	<rect x="3.875" y="6.938" fill="#1C6CBE" width="3" height="21.833"/>
	<path fill="#1C6CBE" d="M0.727,9.023L5.313,1.08l4.586,7.943c0,0-1.805-0.991-4.523-0.991C2.688,8.031,0.727,9.023,0.727,9.023z"/>
	<path fill="#1C6CBE" d="M11.792,15c0,0-4.042,0.167-5.5,2.375C5.878,18.001,5.841,14.654,6.208,14c1.125-2,5.583-2,5.583-2V15z"/>
	<polygon fill="#1C6CBE" points="11.792,16.875 11.753,10.314 17.455,13.561 	"/>
</g>
<g>
	<polygon fill="#478B38" points="20.188,10.314 25.407,10.314 23.75,3.167 20.188,3.167 	"/>
	<polygon fill="#478B38" points="20.188,28.771 29.688,28.771 27.001,17.188 20.188,17.188 	"/>
	<polygon fill="#478B38" points="18.188,17.188 11.364,17.188 8.688,28.771 18.188,28.771 	"/>
	<polygon fill="#478B38" points="18.188,10.314 18.188,3.167 14.604,3.167 12.953,10.314 	"/>
</g>
</svg>
