<?xml version="1.0" encoding="utf-8"?>
<!-- Generator: Adobe Illustrator 17.0.0, SVG Export Plug-In . SVG Version: 6.00 Build 0)  -->
<!DOCTYPE svg PUBLIC "-//W3C//DTD SVG 1.1//EN" "http://www.w3.org/Graphics/SVG/1.1/DTD/svg11.dtd">
<svg version="1.1"
	 id="svg2203" xmlns:cc="http://web.resource.org/cc/" xmlns:svg="http://www.w3.org/2000/svg" xmlns:rdf="http://www.w3.org/1999/02/22-rdf-syntax-ns#" xmlns:sodipodi="http://sodipodi.sourceforge.net/DTD/sodipodi-0.dtd" xmlns:dc="http://purl.org/dc/elements/1.1/" xmlns:inkscape="http://www.inkscape.org/namespaces/inkscape" sodipodi:version="0.32" sodipodi:docname="闂傚倸鍊搁崐鎼佸磹閹间礁纾归柟闂寸绾惧湱鈧懓瀚崳纾嬨亹閹烘垹鍊為梺鍝勫暙閻楀﹪宕戦幇鐗堢厱婵炲棗绻樺畷浼村箛绾捐棄霉閿濆棗鐏婇柛姘厱閻庯絼鎴烽梺鐟扮畭閸ㄥ綊鍩為幋鐘亾閿濆繒搴婂┑鐘垫暩婵挳鏁冮妶澶婄疇闁规壆澧楅弲绻濇繝鍌氭殜闁衡偓娴犲鐓冮柍杞扮閺嗐垻鐥崑鎾剁磽閸屾艾鈧兘鎳楅懜鍨弿闂傚牊绋撻弳鍡欑磼鐎ｄ虎閻撱倗绱掗悩鑼Ш闁哄矉缍侀獮鍥╁緤鐠囨祴鏀芥繛鍙夌墵閸╃偤骞嬮敂鑺ユ珫闂佸憡娲栭幗瀣節绾版ǚ鍋撻幎鑺ョ厵闁稿鎹囬獮鏍ㄦ綇閸撗勫仹闂佺粯鎸婚幑鍥蓟閿濆鍋愰柛娆忕粣娑㈡⒑缁嬪潡骞愬宀€浜遍梻浣告啞閸旀牕危濮婃椽鏌呴悙鎻掗柛妯兼暬濮婃椽鎳濋弶鍨優濠" sodipodi:docbase="D:\SVG\闂傚倸鍊搁崐鎼佸磹閹间礁纾归柟闂寸绾惧綊鏌熼梻瀵哥痪鍓ф嚀閻庯絾宕抽梺缁橀柕鍡樺笒闁挎繂鎳嶆竟鏇熶繆閵堝洤啸闁稿鍋ら幃褔鎮╅懠瀚氭繛鏉戞繝鐢靛仜濡瑩宕濋弴銏犵闁告稑鐡ㄩ埛鎴︽⒒閸喓銆掔紒鐘插暱閳规垿寮ㄦ潏鈺冪焿闁圭儤閸ゅ啴鏌嶉崫鍕殶闁挎稒绻冪换娑欐綇閸撗冪紓浣烘噰鐎规毝娲偂濞嗘挻鐓曟繛鎴烇公閺€濠氭煕婵犲啫濮嶉柡" inkscape:version="0.45.1" inkscape:output_extension="org.inkscape.output.svg.inkscape"
	 xmlns="http://www.w3.org/2000/svg" xmlns:xlink="http://www.w3.org/1999/xlink" x="0px" y="0px" width="30px" height="30px"
	 viewBox="0 0 30 30" enable-background="new 0 0 30 30" xml:space="preserve">
<sodipodi:namedview  inkscape:zoom="0.74999999" id="base" showguides="true" guidetolerance="10" pagecolor="#ffffff" inkscape:cx="126.79097" borderopacity="1.0" gridtolerance="10000" bordercolor="#666666" inkscape:cy="646.08493" objecttolerance="10" inkscape:window-height="968" inkscape:window-y="-4" inkscape:window-x="-4" inkscape:window-width="1280" inkscape:current-layer="layer1" inkscape:document-units="px" inkscape:pageshadow="2" inkscape:pageopacity="0.0" inkscape:guide-bbox="true">
	<sodipodi:guide  position="1116" id="guide22942" orientation="vertical"></sodipodi:guide>
	<sodipodi:guide  position="1147" id="guide22944" orientation="vertical"></sodipodi:guide>
</sodipodi:namedview>
<g>
	<g>
		<path fill="#100808" d="M23.313,16.905c0.301,0,0.547-0.257,0.547-0.58c0-0.102-0.028-0.203-0.075-0.29L15.473,0.761
			c-0.097-0.179-0.277-0.29-0.473-0.29c-0.194,0-0.375,0.111-0.472,0.29L6.212,16.034c-0.044,0.088-0.072,0.189-0.072,0.29
			c0,0.319,0.244,0.58,0.549,0.58h16.624L23.313,16.905L23.313,16.905z"/>
		<polygon fill="#F7BD42" points="21.424,15.168 8.579,15.168 15,3.37 		"/>
	</g>
	<circle cx="13.069" cy="13.667" r="0.48"/>
	<circle cx="14.784" cy="13.667" r="0.48"/>
	<circle cx="16.589" cy="13.667" r="0.48"/>
	<path d="M16.223,7.349c-0.116,0-0.227,0.022-0.328,0.061c-0.136-0.23-0.387-0.388-0.673-0.388c-0.298,0-0.553,0.164-0.685,0.409
		c-0.075-0.017-0.153-0.023-0.233-0.023c-0.661,0-1.197,0.537-1.197,1.198c0,0.159,0.029,0.306,0.086,0.444
		c-0.052-0.016-0.105-0.023-0.162-0.023c-0.286,0-0.519,0.231-0.519,0.519c0,0.043,0.005,0.085,0.019,0.124
		c-0.159,0.048-0.272,0.192-0.272,0.364c0,0.209,0.168,0.379,0.381,0.379c0.2,0,0.361-0.154,0.378-0.349
		c0.005,0,0.01,0.002,0.016,0.002c0.164,0,0.31-0.075,0.405-0.196c0.082,0.206,0.282,0.351,0.515,0.351
		c0.262,0,0.486-0.186,0.538-0.434c0.507-0.076,0.906-0.474,0.996-0.976c0.167,0.226,0.44,0.374,0.74,0.374
		c0.508,0,0.919-0.411,0.919-0.916C17.142,7.76,16.731,7.349,16.223,7.349z"/>
	<g>
		<path d="M11.837,11.256c0,0-0.096,0.526-0.096,0.959s0.111,0.961,0.111,0.961H11.7v0.32h0.796v-0.415h4.673v0.415h1.278v-0.451
			h-0.178v-1.892h0.178v-0.272h-1.972v0.374h-0.469c0-0.066,0-0.111,0-0.115c0-0.149-0.117-0.266-0.265-0.266
			c-0.148,0-0.266,0.117-0.266,0.266v0.115h-0.672c0-0.148-0.119-0.264-0.268-0.264c-0.146,0-0.265,0.116-0.265,0.264h-1.483v-0.599
			H12.16v0.599"/>
		<path d="M17.169,13.082L17.169,13.082L17.169,13.082L17.169,13.082L17.169,13.082L17.169,13.082L17.169,13.082L17.169,13.082
			L17.169,13.082L17.169,13.082L17.169,13.082L17.169,13.082L17.169,13.082L17.169,13.082L17.169,13.082L17.169,13.082
			L17.169,13.082L17.169,13.082L17.169,13.082L17.169,13.082z M17.169,13.082L17.169,13.082L17.169,13.082L17.169,13.082
			L17.169,13.082L17.169,13.082L17.169,13.082L17.169,13.082L17.169,13.082L17.169,13.082L17.169,13.082z M17.169,13.082
			L17.169,13.082L17.169,13.082L17.169,13.082L17.169,13.082L17.169,13.082L17.169,13.082z M17.169,13.082L17.169,13.082
			L17.169,13.082L17.169,13.082L17.169,13.082z M17.169,13.082L17.169,13.082L17.169,13.082L17.169,13.082L17.169,13.082z"/>
	</g>
	<rect x="11.737" y="16.905" fill="#231815" width="6.986" height="12.623"/>
	<rect x="11.965" y="17.118" fill="#FFFFFF" width="6.528" height="12.2"/>
	<polygon fill="#D1141C" points="11.894,26.999 11.894,29.076 18.519,26.421 18.519,24.201 	"/>
	<polygon fill="#D1141C" points="11.894,23.657 11.894,25.734 18.519,23.08 18.519,20.86 	"/>
	<polygon fill="#D1141C" points="11.894,20.232 11.894,22.309 18.519,19.656 18.519,17.433 	"/>
</g>
</svg>
