<?xml version="1.0" encoding="utf-8"?>
<!-- Generator: Adobe Illustrator 17.0.0, SVG Export Plug-In . SVG Version: 6.00 Build 0)  -->
<!DOCTYPE svg PUBLIC "-//W3C//DTD SVG 1.1//EN" "http://www.w3.org/Graphics/SVG/1.1/DTD/svg11.dtd">
<svg version="1.1"
	 id="svg2203" xmlns:cc="http://web.resource.org/cc/" xmlns:svg="http://www.w3.org/2000/svg" xmlns:rdf="http://www.w3.org/1999/02/22-rdf-syntax-ns#" xmlns:sodipodi="http://sodipodi.sourceforge.net/DTD/sodipodi-0.dtd" xmlns:dc="http://purl.org/dc/elements/1.1/" xmlns:inkscape="http://www.inkscape.org/namespaces/inkscape" sodipodi:version="0.32" sodipodi:docname="闂傚倸鍊搁崐鎼佸磹瀹勬噴褰掑炊閺冨牊鍋愰柛娆忛崰鎰磽娴ｆ垝鍚柛瀣仧閹广垹鈹戠€ｏ紲濠电姴锕ら幊鎰版晬濠婂啠鏀介柍鈺佸暢绾偓缂傚倷鑳舵慨闈涚暆缁嬪灝煤缁犲綊鏌ｉ幇绲诲┑娲栭埞鎴︽晬閸曞摋濠碘€抽柟鍋撻幖杈剧悼閻撴捇鏌ｉ悩鍙夊窛闁稿鎸歌灋闁告劖妲梺閫炲嫮鍘甸梺鑹板吹濡" sodipodi:docbase="D:\SVG\闂傚倸鍊搁崐鎼佸磹閹间礁纾瑰瀣捣閻棗銆掑锝呬壕濡ょ姷鍋為悧鐘茬拠娴嬫婵炲棙鍔曢崝鍛存⒑闂堟稓绠冲┑鏀辩粋鎺楁嚃閳哄啰锛濇繛杈剧导缁瑩宕ú鐓欓柛娑橈攻閸婃劙鏌" inkscape:version="0.45.1" inkscape:output_extension="org.inkscape.output.svg.inkscape"
	 xmlns="http://www.w3.org/2000/svg" xmlns:xlink="http://www.w3.org/1999/xlink" x="0px" y="0px" width="30px" height="30px"
	 viewBox="0 0 30 30" enable-background="new 0 0 30 30" xml:space="preserve">
<sodipodi:namedview  inkscape:zoom="0.74999999" id="base" showguides="true" guidetolerance="10" pagecolor="#ffffff" inkscape:cx="126.79097" borderopacity="1.0" gridtolerance="10000" bordercolor="#666666" inkscape:cy="646.08493" objecttolerance="10" inkscape:window-height="968" inkscape:window-y="-4" inkscape:window-x="-4" inkscape:window-width="1280" inkscape:current-layer="layer1" inkscape:document-units="px" inkscape:pageshadow="2" inkscape:pageopacity="0.0" inkscape:guide-bbox="true">
	<sodipodi:guide  position="1116" id="guide22942" orientation="vertical"></sodipodi:guide>
	<sodipodi:guide  position="1147" id="guide22944" orientation="vertical"></sodipodi:guide>
</sodipodi:namedview>
<g>
	<g>
		<path fill="#100808" d="M28.824,28.664c0.5,0,0.909-0.428,0.909-0.963c0-0.169-0.046-0.337-0.124-0.483L15.785,1.819
			c-0.161-0.298-0.461-0.483-0.787-0.483c-0.322,0-0.624,0.185-0.785,0.483L0.385,27.218c-0.074,0.146-0.119,0.315-0.119,0.483
			c0,0.53,0.406,0.963,0.911,0.963H28.824z"/>
		<polygon fill="#F7BD42" points="25.682,25.775 4.32,25.775 14.998,6.153 		"/>
	</g>
	<g>
		<g>
			<polygon points="13.351,13.79 13.396,14.015 14.022,14.105 14.467,13.926 14.872,12.988 14.648,12.496 14.333,12.54 
				13.889,12.138 13.214,12.451 13.263,12.764 13.038,13.435 			"/>
			<polygon points="11.92,15.537 12.501,15.357 12.679,15.043 12.546,14.865 12.459,14.687 11.833,14.461 11.427,14.731 
				11.518,15.087 			"/>
			<polygon points="11.833,17.188 11.518,17.771 11.608,18.306 12.01,18.712 12.501,18.755 12.727,18.306 12.994,18.129 
				13.752,17.323 13.574,17.054 13.439,16.386 12.861,16.386 12.636,16.341 			"/>
			<polygon points="9.908,20.451 9.908,20.809 10.266,20.944 10.667,21.077 11.116,20.675 11.742,20.183 11.786,19.783 
				11.966,19.423 11.786,19.157 11.475,19.023 11.206,18.932 10.667,19.066 10.31,18.888 9.865,19.157 9.641,19.29 9.688,20.007 			
				"/>
		</g>
		<path d="M16.93,11.612l-0.226,0.348l-1.03,0.984c0,0-0.493,0.491-0.493,0.667c0,0.18,0.044,0.626-0.043,0.806
			c-0.089,0.182-0.133,0.669-0.27,0.808c-0.133,0.133-0.315,0.493-0.357,0.759c-0.044,0.267-0.132,1.119-0.182,1.386
			c-0.041,0.269,0.043,0.669,0.313,0.85c0.27,0.178,0.674,0.626,0.719,0.804c0.044,0.178,0.222,0.626,0.132,0.804
			c-0.089,0.183-0.491,1.074-0.58,1.298c-0.089,0.224-0.404,0.806-0.404,0.984c0,0.178,0.222,0.22,0.27,0.402
			c0.043,0.178,0.043,0.58-0.044,0.759c-0.089,0.178-0.711,1.271-0.734,1.274h-3.266l0.758-0.759l-0.039-0.404l0.091-0.626
			l-0.357-0.406l-0.717-0.178L9.804,22.35l-0.759-0.041l-0.85,0.982l0.315,0.85l0.402,0.091l0.311,0.313H5.235l-0.428,0.702h19.997
			L16.93,11.612z"/>
	</g>
</g>
</svg>
