<?xml version="1.0" encoding="utf-8"?>
<!-- Generator: Adobe Illustrator 17.0.0, SVG Export Plug-In . SVG Version: 6.00 Build 0)  -->
<!DOCTYPE svg PUBLIC "-//W3C//DTD SVG 1.1//EN" "http://www.w3.org/Graphics/SVG/1.1/DTD/svg11.dtd">
<svg version="1.1"
	 id="svg2203" xmlns:cc="http://web.resource.org/cc/" xmlns:svg="http://www.w3.org/2000/svg" xmlns:rdf="http://www.w3.org/1999/02/22-rdf-syntax-ns#" xmlns:sodipodi="http://sodipodi.sourceforge.net/DTD/sodipodi-0.dtd" xmlns:dc="http://purl.org/dc/elements/1.1/" xmlns:inkscape="http://www.inkscape.org/namespaces/inkscape" sodipodi:version="0.32" sodipodi:docname="闂傚倸鍊搁崐鎼佸磹瀹勬噴褰掑炊閺冨牊鍋愰柛娆忛崰鎰磽娴ｆ垝鍚柛瀣仧閹广垹鈹戠€ｏ紲濠电姴锕ら幊鎰版晬濠婂啠鏀介柍鈺佸暢绾偓缂傚倷鑳舵慨闈涚暆缁嬪灝煤缁犲綊鏌ｉ幇绲诲┑娲栭埞鎴︽晬閸曞摋濠碘€抽柟鍋撻幖杈剧悼閻撴捇鏌ｉ悩鍙夊窛闁稿鎸歌灋闁告劖妲梺閫炲嫮鍘甸梺鑹板吹濡" sodipodi:docbase="D:\SVG\闂傚倸鍊搁崐鎼佸磹閹间礁纾瑰瀣捣閻棗銆掑锝呬壕濡ょ姷鍋為悧鐘茬拠娴嬫婵炲棙鍔曢崝鍛存⒑闂堟稓绠冲┑鏀辩粋鎺楁嚃閳哄啰锛濇繛杈剧导缁瑩宕ú鐓欓柛娑橈攻閸婃劙鏌" inkscape:version="0.45.1" inkscape:output_extension="org.inkscape.output.svg.inkscape"
	 xmlns="http://www.w3.org/2000/svg" xmlns:xlink="http://www.w3.org/1999/xlink" x="0px" y="0px" width="30px" height="30px"
	 viewBox="0 0 30 30" enable-background="new 0 0 30 30" xml:space="preserve">
<sodipodi:namedview  inkscape:zoom="0.74999999" id="base" showguides="true" guidetolerance="10" pagecolor="#ffffff" inkscape:cx="126.79097" borderopacity="1.0" gridtolerance="10000" bordercolor="#666666" inkscape:cy="646.08493" objecttolerance="10" inkscape:window-height="968" inkscape:window-y="-4" inkscape:window-x="-4" inkscape:window-width="1280" inkscape:current-layer="layer1" inkscape:document-units="px" inkscape:pageshadow="2" inkscape:pageopacity="0.0" inkscape:guide-bbox="true">
	<sodipodi:guide  position="1116" id="guide22942" orientation="vertical"></sodipodi:guide>
	<sodipodi:guide  position="1147" id="guide22944" orientation="vertical"></sodipodi:guide>
</sodipodi:namedview>
<g>
	<g>
		<path fill="#100808" d="M1.176,28.664c-0.502,0-0.909-0.428-0.909-0.963c0-0.169,0.046-0.337,0.124-0.483L14.215,1.819
			c0.161-0.298,0.461-0.483,0.787-0.483c0.322,0,0.624,0.185,0.785,0.483l13.827,25.399c0.074,0.146,0.119,0.315,0.119,0.483
			c0,0.53-0.406,0.963-0.911,0.963H1.176z"/>
		<polygon fill="#F7BD42" points="4.32,25.775 25.68,25.775 15.002,6.153 		"/>
	</g>
	<g>
		<g>
			<polygon points="16.649,13.79 16.604,14.015 15.978,14.105 15.533,13.926 15.128,12.988 15.354,12.496 15.667,12.54 
				16.113,12.138 16.786,12.451 16.739,12.764 16.963,13.435 			"/>
			<polygon points="18.08,15.537 17.499,15.357 17.321,15.043 17.454,14.865 17.541,14.687 18.167,14.461 18.573,14.731 
				18.482,15.087 			"/>
			<polygon points="18.167,17.188 18.482,17.771 18.392,18.306 17.99,18.712 17.499,18.755 17.275,18.306 17.006,18.129 
				16.248,17.323 16.428,17.054 16.561,16.386 17.139,16.386 17.364,16.341 			"/>
			<polygon points="20.092,20.451 20.092,20.809 19.734,20.944 19.333,21.077 18.884,20.675 18.258,20.183 18.214,19.783 
				18.034,19.423 18.214,19.157 18.525,19.023 18.794,18.932 19.333,19.066 19.69,18.888 20.136,19.157 20.361,19.29 20.312,20.007 
							"/>
		</g>
		<path d="M13.07,11.612l0.226,0.348l1.03,0.984c0,0,0.491,0.491,0.491,0.667c0,0.18-0.043,0.626,0.044,0.806
			c0.089,0.182,0.133,0.669,0.27,0.808c0.132,0.133,0.315,0.493,0.357,0.759c0.044,0.267,0.132,1.119,0.182,1.386
			c0.041,0.269-0.043,0.669-0.315,0.85c-0.27,0.178-0.672,0.626-0.717,0.804c-0.044,0.178-0.224,0.626-0.133,0.804
			c0.091,0.183,0.493,1.074,0.58,1.298c0.089,0.224,0.404,0.806,0.404,0.984c0,0.178-0.224,0.22-0.27,0.402
			c-0.043,0.178-0.043,0.58,0.043,0.759c0.089,0.178,0.713,1.271,0.734,1.274h3.266l-0.759-0.759l0.041-0.404l-0.091-0.626
			l0.356-0.406l0.719-0.178l0.667,0.178l0.759-0.041l0.85,0.982l-0.315,0.85l-0.402,0.091l-0.311,0.313h3.986l0.43,0.702H5.2
			L13.07,11.612z"/>
	</g>
</g>
</svg>
