<?xml version="1.0" encoding="utf-8"?>
<!-- Generator: Adobe Illustrator 17.0.0, SVG Export Plug-In . SVG Version: 6.00 Build 0)  -->
<!DOCTYPE svg PUBLIC "-//W3C//DTD SVG 1.1//EN" "http://www.w3.org/Graphics/SVG/1.1/DTD/svg11.dtd">
<svg version="1.1"
	 id="svg2203" xmlns:cc="http://web.resource.org/cc/" xmlns:sodipodi="http://sodipodi.sourceforge.net/DTD/sodipodi-0.dtd" xmlns:svg="http://www.w3.org/2000/svg" xmlns:rdf="http://www.w3.org/1999/02/22-rdf-syntax-ns#" xmlns:inkscape="http://www.inkscape.org/namespaces/inkscape" xmlns:dc="http://purl.org/dc/elements/1.1/" inkscape:output_extension="org.inkscape.output.svg.inkscape" inkscape:version="0.45.1" sodipodi:docbase="D:\SVG\闂傚倸鍊搁崐鎼佸磹妞嬪海鐭嗗〒姘ｅ亾妤犵偞鐗犲璇测槈濞嗘劕鍔呴梺闈涚箳婵攱绂掗懖鈺冪＝濞达絼绮欓崫娲煙閸涘﹥鍊愰柡" sodipodi:docname="闂傚倸鍊搁崐宄懊归崶鏃堟偐閸欏鍠愮紓浣戒含閸嬬偟鎹㈠┑瀣＜婵犲﹤鎳愰敍婊冣攽閳╁啳纭€缂備胶濮靛畝绋垮ú绠归柣鎰絻婵洖鈹戦敍鍕哗婵″閹偓鎼达絿鐓撻柣鐘叉川閸嬫挸螞閸愭槬闁逞勭厵闁艰崵妫" sodipodi:version="0.32"
	 xmlns="http://www.w3.org/2000/svg" xmlns:xlink="http://www.w3.org/1999/xlink" x="0px" y="0px" width="30px" height="30px"
	 viewBox="0 0 30 30" enable-background="new 0 0 30 30" xml:space="preserve">
<sodipodi:namedview  objecttolerance="10" gridtolerance="10000" pagecolor="#ffffff" inkscape:cx="126.79097" borderopacity="1.0" bordercolor="#666666" inkscape:cy="646.08493" guidetolerance="10" id="base" inkscape:zoom="0.74999999" showguides="true" inkscape:pageshadow="2" inkscape:guide-bbox="true" inkscape:pageopacity="0.0" inkscape:document-units="px" inkscape:current-layer="layer1" inkscape:window-width="1280" inkscape:window-x="-4" inkscape:window-y="-4" inkscape:window-height="968">
	<sodipodi:guide  orientation="vertical" position="1116" id="guide22942"></sodipodi:guide>
	<sodipodi:guide  orientation="vertical" position="1147" id="guide22944"></sodipodi:guide>
</sodipodi:namedview>
<g>
	<g>
		<path fill="#100808" d="M7.536,22.377c-0.271,0-0.491-0.231-0.491-0.52c0-0.091,0.025-0.182,0.067-0.261l7.463-13.712
			c0.087-0.161,0.25-0.261,0.425-0.261c0.174,0,0.337,0.1,0.424,0.261l7.465,13.712c0.04,0.079,0.065,0.17,0.065,0.261
			c0,0.286-0.219,0.52-0.493,0.52H7.536z"/>
		<polygon fill="#F7BD42" points="9.233,20.817 20.765,20.817 15,10.224 		"/>
	</g>
	<path id="path22940_5_" sodipodi:nodetypes="cccccccccc" d="M14.314,19.63l-0.008-4.142l1.112,0.902l0.021-0.829l-1.447-1.155
		l-1.481,1.154l0.022,0.881l1.182-1.003l0.005,4.191L14.314,19.63L14.314,19.63z"/>
	<path id="path22940_4_" sodipodi:nodetypes="cccccccccc" d="M16.203,14.738l0.009,4.142l-1.113-0.902l-0.021,0.828l1.448,1.156
		l1.48-1.154l-0.021-0.882l-1.182,1.005l-0.005-4.192L16.203,14.738L16.203,14.738z"/>
</g>
</svg>
