<?xml version="1.0" encoding="utf-8"?>
<!-- Generator: Adobe Illustrator 17.0.0, SVG Export Plug-In . SVG Version: 6.00 Build 0)  -->
<!DOCTYPE svg PUBLIC "-//W3C//DTD SVG 1.1//EN" "http://www.w3.org/Graphics/SVG/1.1/DTD/svg11.dtd">
<svg version="1.1"
	 id="svg2203" xmlns:inkscape="http://www.inkscape.org/namespaces/inkscape" xmlns:cc="http://web.resource.org/cc/" xmlns:dc="http://purl.org/dc/elements/1.1/" xmlns:sodipodi="http://sodipodi.sourceforge.net/DTD/sodipodi-0.dtd" xmlns:rdf="http://www.w3.org/1999/02/22-rdf-syntax-ns#" xmlns:svg="http://www.w3.org/2000/svg" sodipodi:docname="闂傚倸鍊峰ù鍥旈悩鍙夋喐缂佽京鍋炵换婵嬪磼濠婂懐锛滃┑鈩冭础缂佺姵宀稿娲箹閻愭彃濮曞┑锛勫仩濡嫰鎮炬搴ｇ煓閻犲洨鍋撳Λ鍐春閳ф煙閼荤棟" inkscape:version="0.45.1" sodipodi:version="0.32" sodipodi:docbase="D:\SVG\闂傚倸鍊搁崐椋庣矆娓氣偓楠炴牠寮诲☉娆愬劅闁靛繒濮锋禒鑲╃磽娴ｄ粙鍝洪柟鍛婃倐閺" inkscape:output_extension="org.inkscape.output.svg.inkscape"
	 xmlns="http://www.w3.org/2000/svg" xmlns:xlink="http://www.w3.org/1999/xlink" x="0px" y="0px" width="30px" height="30px"
	 viewBox="0 0 30 30" enable-background="new 0 0 30 30" xml:space="preserve">
<sodipodi:namedview  inkscape:zoom="0.74999999" objecttolerance="10" showguides="true" inkscape:cy="646.08493" gridtolerance="10000" inkscape:cx="126.79097" pagecolor="#ffffff" borderopacity="1.0" id="base" bordercolor="#666666" guidetolerance="10" inkscape:window-y="-4" inkscape:window-height="968" inkscape:pageshadow="2" inkscape:pageopacity="0.0" inkscape:guide-bbox="true" inkscape:window-width="1280" inkscape:current-layer="layer1" inkscape:window-x="-4" inkscape:document-units="px">
	<sodipodi:guide  orientation="vertical" position="1116" id="guide22942"></sodipodi:guide>
	<sodipodi:guide  orientation="vertical" position="1147" id="guide22944"></sodipodi:guide>
</sodipodi:namedview>
<g>
	<polygon fill="#003CFF" points="8.019,19.977 17.997,19.962 17.982,22.165 21.981,19.497 18.01,16.54 18.01,18.993 8.019,18.995 	
		"/>
	<path d="M9.613,12.214v2.544H8.822V7.95h1.738c0.662,0,1.177,0.177,1.541,0.532c0.366,0.354,0.548,0.861,0.548,1.521
		c0,0.668-0.214,1.209-0.641,1.623c-0.427,0.415-0.961,0.61-1.602,0.587L9.613,12.214L9.613,12.214z"/>
	<path fill="#FFFFFF" d="M9.613,8.725v2.716h0.729c0.483,0,0.851-0.121,1.102-0.363c0.25-0.24,0.376-0.588,0.376-1.039
		c0-0.876-0.469-1.313-1.4-1.313L9.613,8.725L9.613,8.725z"/>
	<path d="M13.382,11.436c0-1.099,0.268-1.973,0.803-2.624s1.262-0.977,2.177-0.977c0.852,0,1.535,0.318,2.057,0.954
		c0.52,0.637,0.779,1.463,0.779,2.483c0,1.104-0.268,1.98-0.801,2.628c-0.531,0.648-1.243,0.971-2.136,0.971
		c-0.87,0-1.566-0.317-2.092-0.954C13.644,13.284,13.382,12.456,13.382,11.436z"/>
	<path fill="#FFFFFF" d="M14.213,11.366c0,0.823,0.189,1.483,0.567,1.979c0.378,0.497,0.872,0.745,1.479,0.745
		c0.654,0,1.167-0.238,1.541-0.715c0.374-0.476,0.562-1.142,0.562-1.998c0-0.879-0.185-1.557-0.55-2.034
		c-0.363-0.479-0.864-0.717-1.501-0.717c-0.625,0-1.131,0.253-1.519,0.757C14.406,9.888,14.213,10.549,14.213,11.366z"/>
	<path d="M21.759,8.694H21.17v5.322h0.589v0.743h-1.97v-0.743h0.589V8.694h-0.589V7.951h1.97V8.694z"/>
</g>
</svg>
