<?xml version="1.0" encoding="utf-8"?>
<!-- Generator: Adobe Illustrator 17.0.0, SVG Export Plug-In . SVG Version: 6.00 Build 0)  -->
<!DOCTYPE svg PUBLIC "-//W3C//DTD SVG 1.1//EN" "http://www.w3.org/Graphics/SVG/1.1/DTD/svg11.dtd">
<svg version="1.1"
	 id="svg2203" xmlns:inkscape="http://www.inkscape.org/namespaces/inkscape" xmlns:cc="http://web.resource.org/cc/" xmlns:dc="http://purl.org/dc/elements/1.1/" xmlns:sodipodi="http://sodipodi.sourceforge.net/DTD/sodipodi-0.dtd" xmlns:rdf="http://www.w3.org/1999/02/22-rdf-syntax-ns#" xmlns:svg="http://www.w3.org/2000/svg" sodipodi:docname="闂傚倸鍊峰ù鍥旈悩鍙夋喐缂佽京鍋炵换婵嬪磼濠婂懐锛滃┑鈩冭础缂佺姵宀稿娲箹閻愭彃濮曞┑锛勫仩濡嫰鎮炬搴ｇ煓閻犲洨鍋撳Λ鍐春閳ф煙閼荤棟" inkscape:version="0.45.1" sodipodi:version="0.32" sodipodi:docbase="D:\SVG\闂傚倸鍊搁崐椋庣矆娓氣偓楠炴牠寮诲☉娆愬劅闁靛繒濮锋禒鑲╃磽娴ｄ粙鍝洪柟鍛婃倐閺" inkscape:output_extension="org.inkscape.output.svg.inkscape"
	 xmlns="http://www.w3.org/2000/svg" xmlns:xlink="http://www.w3.org/1999/xlink" x="0px" y="0px" width="30px" height="30px"
	 viewBox="0 0 30 30" enable-background="new 0 0 30 30" xml:space="preserve">
<sodipodi:namedview  inkscape:zoom="0.74999999" objecttolerance="10" showguides="true" inkscape:cy="646.08493" gridtolerance="10000" inkscape:cx="126.79097" pagecolor="#ffffff" borderopacity="1.0" id="base" bordercolor="#666666" guidetolerance="10" inkscape:window-y="-4" inkscape:window-height="968" inkscape:pageshadow="2" inkscape:pageopacity="0.0" inkscape:guide-bbox="true" inkscape:window-width="1280" inkscape:current-layer="layer1" inkscape:window-x="-4" inkscape:document-units="px">
	<sodipodi:guide  orientation="vertical" position="1116" id="guide22942"></sodipodi:guide>
	<sodipodi:guide  orientation="vertical" position="1147" id="guide22944"></sodipodi:guide>
</sodipodi:namedview>
<g>
	<circle fill="#003CFF" cx="15" cy="15" r="7.678"/>
	<circle fill="#FFFFFF" cx="15" cy="15" r="6.859"/>
	<g>
		<path fill="#231815" d="M11.62,9.693l1.066-0.503l-0.438,1.175l0.104,0.23c2.562-1.091,4.572-0.734,6.375,1.174l-0.688,0.545
			c-1.467-1.572-3.293-1.866-5.285-0.901l0.127,0.294l1.279,0.272l-1.07,0.65l-2.39-0.776L11.62,9.693z"/>
		<path fill="#231815" d="M11.684,20.556l-0.983-0.672l1.258-0.211l0.146-0.209c-2.199-1.656-2.894-3.564-2.115-6.04l0.815,0.313
			c-0.647,2.057,0,3.753,1.845,4.991l0.168-0.25l-0.378-1.237l1.094,0.588l0.504,2.453L11.684,20.556z"/>
		<path fill="#231815" d="M21.203,15.018l-0.084,1.196l-0.817-0.967l-0.252-0.041c-0.313,2.747-1.593,4.301-4.173,4.907
			l-0.146-0.838c2.142-0.504,3.293-1.93,3.396-4.131l-0.314-0.021l-0.86,0.969l-0.063-1.239l1.866-1.677L21.203,15.018z"/>
	</g>
</g>
</svg>
