<?xml version="1.0" encoding="utf-8"?>
<!-- Generator: Adobe Illustrator 15.0.0, SVG Export Plug-In . SVG Version: 6.00 Build 0)  -->
<!DOCTYPE svg PUBLIC "-//W3C//DTD SVG 1.1//EN" "http://www.w3.org/Graphics/SVG/1.1/DTD/svg11.dtd">
<svg version="1.1"
	 id="svg2203" sodipodi:docname="闂傚倸鍊峰ù鍥旈悩鍙夋喐缂佽京鍋炵换婵嬪磼濠婂懐锛滃┑鈩冭础缂佺姵宀稿娲箹閻愭彃濮曞┑锛勫仩濡嫰鎮炬搴ｇ煓閻犲洨鍋撳Λ鍐春閳ф煙閼荤棟" sodipodi:docbase="D:\SVG\闂傚倸鍊搁崐椋庣矆娓氣偓楠炴牠寮诲☉娆愬劅闁靛繒濮锋禒鑲╃磽娴ｄ粙鍝洪柟鍛婃倐閺" xmlns:sodipodi="http://sodipodi.sourceforge.net/DTD/sodipodi-0.dtd" xmlns:cc="http://web.resource.org/cc/" xmlns:inkscape="http://www.inkscape.org/namespaces/inkscape" xmlns:rdf="http://www.w3.org/1999/02/22-rdf-syntax-ns#" xmlns:svg="http://www.w3.org/2000/svg" inkscape:output_extension="org.inkscape.output.svg.inkscape" sodipodi:version="0.32" inkscape:version="0.45.1" xmlns:dc="http://purl.org/dc/elements/1.1/"
	 xmlns="http://www.w3.org/2000/svg" xmlns:xlink="http://www.w3.org/1999/xlink" x="0px" y="0px" width="744.094px"
	 height="1052.363px" viewBox="0 0 744.094 1052.363" enable-background="new 0 0 744.094 1052.363" xml:space="preserve">
<sodipodi:namedview  id="base" inkscape:pageopacity="0.0" inkscape:pageshadow="2" inkscape:document-units="px" inkscape:current-layer="layer1" inkscape:window-width="1280" inkscape:window-height="968" inkscape:window-y="-4" inkscape:window-x="-4" inkscape:guide-bbox="true" guidetolerance="10" objecttolerance="10" inkscape:cy="646.08493" borderopacity="1.0" inkscape:zoom="0.74999999" showguides="true" pagecolor="#ffffff" inkscape:cx="126.79097" bordercolor="#666666" gridtolerance="10000">
	<sodipodi:guide  id="guide22942" position="1116" orientation="vertical"></sodipodi:guide>
	<sodipodi:guide  id="guide22944" position="1147" orientation="vertical"></sodipodi:guide>
</sodipodi:namedview>
<g>
	<path fill="#100808" d="M76.473,102.339c-0.27,0-0.491-0.23-0.491-0.52c0-0.091,0.025-0.182,0.067-0.261l7.463-13.712
		c0.087-0.161,0.25-0.262,0.425-0.262c0.174,0,0.337,0.101,0.424,0.262l7.467,13.712c0.04,0.079,0.063,0.17,0.063,0.261
		c0,0.286-0.219,0.52-0.493,0.52H76.473z"/>
	<polygon fill="#F7BD42" points="78.17,100.779 89.702,100.779 83.937,90.187 	"/>
</g>
<rect x="83.318" y="93.945" width="1.146" height="6.046"/>
<polyline points="80.913,96.474 86.959,96.474 86.959,97.619 80.913,97.619 "/>
</svg>
