<?xml version="1.0" encoding="utf-8"?>
<!-- Generator: Adobe Illustrator 17.0.0, SVG Export Plug-In . SVG Version: 6.00 Build 0)  -->
<!DOCTYPE svg PUBLIC "-//W3C//DTD SVG 1.1//EN" "http://www.w3.org/Graphics/SVG/1.1/DTD/svg11.dtd">
<svg version="1.1"
	 id="svg2203" inkscape:output_extension="org.inkscape.output.svg.inkscape" inkscape:version="0.45.1" sodipodi:docbase="D:\SVG\闂傚倸鍊搁崐鎼佸磹妞嬪海鐭嗗〒姘ｅ亾妤犵偞鐗犲璇测槈濞嗘劕鍔呴梺闈涚箳婵攱绂掗懖鈺冪＝濞达絼绮欓崫娲煙閸涘﹥鍊愰柡" sodipodi:docname="闂傚倸鍊搁崐宄懊归崶鏃堟偐閸欏鍠愮紓浣戒含閸嬬偟鎹㈠┑瀣＜婵犲﹤鎳愰敍婊冣攽閳╁啳纭€缂備胶濮靛畝绋垮ú绠归柣鎰絻婵洖鈹戦敍鍕哗婵″閹偓鎼达絿鐓撻柣鐘叉川閸嬫挸螞閸愭槬闁逞勭厵闁艰崵妫" sodipodi:version="0.32" xmlns:sodipodi="http://sodipodi.sourceforge.net/DTD/sodipodi-0.dtd" xmlns:cc="http://web.resource.org/cc/" xmlns:dc="http://purl.org/dc/elements/1.1/" xmlns:inkscape="http://www.inkscape.org/namespaces/inkscape" xmlns:rdf="http://www.w3.org/1999/02/22-rdf-syntax-ns#" xmlns:svg="http://www.w3.org/2000/svg"
	 xmlns="http://www.w3.org/2000/svg" xmlns:xlink="http://www.w3.org/1999/xlink" x="0px" y="0px" width="30px" height="30px"
	 viewBox="0 0 30 30" enable-background="new 0 0 30 30" xml:space="preserve">
<sodipodi:namedview  inkscape:pageshadow="2" inkscape:guide-bbox="true" inkscape:pageopacity="0.0" inkscape:document-units="px" inkscape:current-layer="layer1" inkscape:window-width="1280" inkscape:window-x="-4" inkscape:window-y="-4" inkscape:window-height="968" gridtolerance="10000" pagecolor="#ffffff" id="base" guidetolerance="10" inkscape:cx="126.79097" borderopacity="1.0" objecttolerance="10" bordercolor="#666666" inkscape:zoom="0.74999999" showguides="true" inkscape:cy="646.08493">
	<sodipodi:guide  position="1116" orientation="vertical" id="guide22942"></sodipodi:guide>
	<sodipodi:guide  position="1147" orientation="vertical" id="guide22944"></sodipodi:guide>
</sodipodi:namedview>
<rect fill="#0000FF" width="30" height="30"/>
<rect x="1.5" y="2" fill="#FFE900" width="2.5" height="6"/>
<rect x="1.5" y="12" fill="#FFE900" width="2.5" height="6"/>
<rect x="1.5" y="22" fill="#FFE900" width="2.5" height="6"/>
<rect x="25.906" y="2" fill="#FFE900" width="2.498" height="6"/>
<rect x="25.906" y="12" fill="#FFE900" width="2.498" height="6"/>
<rect x="25.906" y="22" fill="#FFE900" width="2.498" height="6"/>
<g>
	<g>
		<path fill-rule="evenodd" clip-rule="evenodd" fill="#FFFFFF" d="M24.901,8.219c-0.676-0.57-3.926-0.294-5.212-0.294H5.399
			c-0.07,0.07-0.14,0.14-0.21,0.21c-0.042,0.925-0.084,1.849-0.126,2.774c-0.098,0.07-0.196,0.14-0.294,0.21v0.967
			c0,0.661-0.114,1.502,0.252,1.807c1.065,0.014,2.13,0.028,3.194,0.042c-0.42-2.007,2.679-2.073,2.312,0h7.902
			c-0.361-1.914,2.499-2.172,2.396,0c1.457-0.28,2.914-0.56,4.371-0.841C25.205,12.016,25.423,8.659,24.901,8.219z M7.248,13.01
			c-0.168,0.259-0.852,0.2-1.135,0.084c-0.014-1.317-0.028-2.634-0.042-3.951C6.127,9.102,6.183,9.06,6.239,9.017
			C6.562,9.031,6.884,9.045,7.206,9.06C7.371,9.416,7.422,12.585,7.248,13.01z M11.703,10.573c-0.578,0.339-2.65,0.232-3.405,0.084
			c-0.101-0.43-0.081-1.067-0.042-1.555c0.042-0.028,0.084-0.056,0.126-0.084h3.194C11.768,9.337,11.718,10.059,11.703,10.573z
			 M12.628,10.699c-0.191-0.319-0.14-1.041-0.126-1.555l0.126-0.126h3.194c0.028,0.042,0.056,0.084,0.084,0.126
			c0.014,0.476,0.028,0.953,0.042,1.429C15.302,10.95,13.535,10.712,12.628,10.699z M20.194,10.573
			c-0.287,0.17-2.897,0.26-3.32,0.084c-0.325-0.21-0.206-1.408,0-1.639h3.194C20.258,9.337,20.208,10.059,20.194,10.573z
			 M21.076,10.699c-0.191-0.319-0.141-1.041-0.126-1.555c0.042-0.042,0.084-0.084,0.126-0.126c0.942-0.02,2.958-0.26,3.278,0.378
			c0.014,0.392,0.028,0.785,0.042,1.177C23.75,10.95,21.983,10.712,21.076,10.699z M9.224,12.548
			c-0.242,0.128-0.523,0.203-0.672,0.42c-0.464,0.672,0.076,1.769,0.925,1.639C10.722,14.417,10.672,12.497,9.224,12.548z
			 M9.602,14.061c-0.14,0.014-0.28,0.028-0.42,0.042c-0.159-0.151-0.242-0.234-0.336-0.462c0.03-0.41,0.198-0.465,0.462-0.63
			c0.399,0.057,0.458,0.189,0.63,0.462C9.925,13.801,9.837,13.957,9.602,14.061z M19.437,12.548
			c-0.243,0.128-0.523,0.203-0.673,0.42c-0.46,0.667,0.077,1.769,0.925,1.639C20.939,14.417,20.885,12.497,19.437,12.548z
			 M19.815,14.061c-0.14,0.014-0.28,0.028-0.42,0.042c-0.112-0.14-0.224-0.28-0.336-0.42c0.024-0.456,0.195-0.51,0.504-0.672
			c0.345,0.055,0.462,0.194,0.588,0.462C20.139,13.801,20.051,13.957,19.815,14.061z"/>
	</g>
</g>
<rect x="14.188" y="17" fill-rule="evenodd" clip-rule="evenodd" fill="#FFFFFF" width="1.625" height="8"/>
<polygon fill-rule="evenodd" clip-rule="evenodd" fill="#FFFFFF" points="15,23.752 12.706,21.458 11.515,22.649 15,26.134 
	18.485,22.649 17.294,21.458 "/>
</svg>
