<?xml version="1.0" encoding="utf-8"?>
<!-- Generator: Adobe Illustrator 17.0.0, SVG Export Plug-In . SVG Version: 6.00 Build 0)  -->
<!DOCTYPE svg PUBLIC "-//W3C//DTD SVG 1.1//EN" "http://www.w3.org/Graphics/SVG/1.1/DTD/svg11.dtd">
<svg version="1.1"
	 id="svg2203" xmlns:cc="http://web.resource.org/cc/" xmlns:sodipodi="http://sodipodi.sourceforge.net/DTD/sodipodi-0.dtd" xmlns:svg="http://www.w3.org/2000/svg" xmlns:rdf="http://www.w3.org/1999/02/22-rdf-syntax-ns#" xmlns:inkscape="http://www.inkscape.org/namespaces/inkscape" xmlns:dc="http://purl.org/dc/elements/1.1/" inkscape:output_extension="org.inkscape.output.svg.inkscape" inkscape:version="0.45.1" sodipodi:docbase="D:\SVG\闂傚倸鍊搁崐椋庣矆娓氣偓楠炴牠寮诲☉娆愬劅闁靛繒濮锋禒鑲╃磽娴ｄ粙鍝洪柟鍛婃倐閺" sodipodi:docname="闂傚倸鍊峰ù鍥旈悩鍙夋喐缂佽京鍋炵换婵嬪磼濠婂懐锛滃┑鈩冭础缂佺姵宀稿娲箹閻愭彃濮曞┑锛勫仩濡嫰鎮炬搴ｇ煓閻犲洨鍋撳Λ鍐春閳ф煙閼荤棟" sodipodi:version="0.32"
	 xmlns="http://www.w3.org/2000/svg" xmlns:xlink="http://www.w3.org/1999/xlink" x="0px" y="0px" width="30px" height="30px"
	 viewBox="0 0 30 30" enable-background="new 0 0 30 30" xml:space="preserve">
<sodipodi:namedview  objecttolerance="10" gridtolerance="10000" pagecolor="#ffffff" inkscape:cx="126.79097" borderopacity="1.0" bordercolor="#666666" inkscape:cy="646.08493" guidetolerance="10" id="base" inkscape:zoom="0.74999999" showguides="true" inkscape:pageshadow="2" inkscape:guide-bbox="true" inkscape:pageopacity="0.0" inkscape:document-units="px" inkscape:current-layer="layer1" inkscape:window-width="1280" inkscape:window-x="-4" inkscape:window-y="-4" inkscape:window-height="968">
	<sodipodi:guide  orientation="vertical" position="1116" id="guide22942"></sodipodi:guide>
	<sodipodi:guide  orientation="vertical" position="1147" id="guide22944"></sodipodi:guide>
</sodipodi:namedview>
<g>
	<path d="M8.728,18.069c0.24,0.263,0.563,0.479,0.965,0.647c0.403,0.169,0.786,0.254,1.148,0.254c1.104,0,1.655-0.491,1.655-1.473
		c0-0.275-0.061-0.522-0.18-0.743c-0.117-0.222-0.279-0.415-0.485-0.584c-0.207-0.169-0.594-0.431-1.163-0.781
		c-0.789-0.491-1.311-0.947-1.561-1.368s-0.375-0.903-0.375-1.444c0-0.816,0.264-1.464,0.787-1.941
		c0.524-0.479,1.188-0.717,1.985-0.717c0.782,0,1.356,0.119,1.722,0.354v1.384c-0.474-0.41-1.071-0.615-1.798-0.615
		c-0.479,0-0.873,0.126-1.176,0.378c-0.303,0.251-0.454,0.602-0.454,1.05c0,0.397,0.104,0.722,0.314,0.971
		c0.21,0.249,0.666,0.59,1.364,1.022c0.772,0.461,1.313,0.922,1.62,1.384c0.31,0.461,0.462,0.979,0.462,1.555
		c0,0.863-0.25,1.525-0.751,1.987s-1.195,0.692-2.087,0.692c-0.312,0-0.674-0.055-1.089-0.162c-0.415-0.107-0.717-0.242-0.907-0.403
		V18.07h0.004C8.728,18.07,8.728,18.069,8.728,18.069z"/>
	<polygon points="21.276,19.917 20.154,19.917 19.351,17.225 16.077,17.225 15.321,19.916 14.198,19.916 17.193,10.083 
		18.281,10.083 	"/>
	<path fill="#FFFFFF" d="M19.036,16.114l-1.188-4.088c-0.038-0.131-0.078-0.359-0.122-0.686h-0.025
		c-0.037,0.296-0.08,0.524-0.127,0.686l-1.18,4.088H19.036z"/>
</g>
</svg>
