<?xml version="1.0" encoding="utf-8"?>
<!-- Generator: Adobe Illustrator 17.0.0, SVG Export Plug-In . SVG Version: 6.00 Build 0)  -->
<!DOCTYPE svg PUBLIC "-//W3C//DTD SVG 1.1//EN" "http://www.w3.org/Graphics/SVG/1.1/DTD/svg11.dtd">
<svg version="1.1"
	 id="svg2203" inkscape:output_extension="org.inkscape.output.svg.inkscape" sodipodi:version="0.32" sodipodi:docbase="D:\SVG\闂傚倸鍊搁崐鎼佸磹妞嬪海鐭嗗〒姘ｅ亾妤犵偞鐗犲璇测槈濞嗘劕鍔呴梺闈涚箳婵攱绂掗懖鈺冪＝濞达絼绮欓崫娲煙閸涘﹥鍊愰柡" sodipodi:docname="闂傚倸鍊搁崐宄懊归崶鏃堟偐閸欏鍠愮紓浣戒含閸嬬偟鎹㈠┑瀣＜婵犲﹤鎳愰敍婊冣攽閳╁啳纭€缂備胶濮靛畝绋垮ú绠归柣鎰絻婵洖鈹戦敍鍕哗婵″閹偓鎼达絿鐓撻柣鐘叉川閸嬫挸螞閸愭槬闁逞勭厵闁艰崵妫" inkscape:version="0.45.1" xmlns:sodipodi="http://sodipodi.sourceforge.net/DTD/sodipodi-0.dtd" xmlns:dc="http://purl.org/dc/elements/1.1/" xmlns:cc="http://web.resource.org/cc/" xmlns:inkscape="http://www.inkscape.org/namespaces/inkscape" xmlns:rdf="http://www.w3.org/1999/02/22-rdf-syntax-ns#" xmlns:svg="http://www.w3.org/2000/svg"
	 xmlns="http://www.w3.org/2000/svg" xmlns:xlink="http://www.w3.org/1999/xlink" x="0px" y="0px" width="30px" height="30px"
	 viewBox="0 0 30 30" enable-background="new 0 0 30 30" xml:space="preserve">
<sodipodi:namedview  inkscape:pageopacity="0.0" inkscape:pageshadow="2" inkscape:document-units="px" inkscape:window-x="-4" inkscape:window-y="-4" inkscape:window-width="1280" inkscape:window-height="968" inkscape:guide-bbox="true" inkscape:current-layer="layer1" showguides="true" bordercolor="#666666" inkscape:cy="646.08493" gridtolerance="10000" id="base" borderopacity="1.0" objecttolerance="10" pagecolor="#ffffff" inkscape:cx="126.79097" inkscape:zoom="0.74999999" guidetolerance="10">
	<sodipodi:guide  position="1116" orientation="vertical" id="guide22942"></sodipodi:guide>
	<sodipodi:guide  position="1147" orientation="vertical" id="guide22944"></sodipodi:guide>
</sodipodi:namedview>
<g>
	<g>
		<path fill="#0000FF" d="M5.889,10.351c0-1.465,0.396-2.631,1.189-3.498c0.793-0.866,1.867-1.301,3.223-1.301
			c1.262,0,2.277,0.424,3.047,1.271s1.154,1.95,1.154,3.311c0,1.473-0.395,2.641-1.184,3.504s-1.844,1.295-3.164,1.295
			c-1.289,0-2.322-0.424-3.1-1.271C6.277,12.815,5.889,11.71,5.889,10.351z M7.12,10.257c0,1.098,0.28,1.979,0.841,2.64
			c0.561,0.662,1.292,0.993,2.194,0.993c0.969,0,1.729-0.316,2.282-0.952c0.553-0.635,0.829-1.521,0.829-2.663
			c0-1.172-0.271-2.075-0.812-2.713c-0.541-0.637-1.282-0.955-2.224-0.955c-0.926,0-1.676,0.337-2.25,1.009
			C7.406,8.287,7.12,9.167,7.12,10.257z"/>
	</g>
	<g>
		<path fill="#0000FF" d="M24.111,16.698h-2.903v7.75h-1.178v-7.75h-2.891v-1.61h6.972V16.698z"/>
	</g>
	<line fill="none" stroke="#0000FF" stroke-miterlimit="10" x1="7.786" y1="22.447" x2="23.703" y2="6.53"/>
</g>
</svg>
