<?xml version="1.0" encoding="utf-8"?>
<!-- Generator: Adobe Illustrator 17.0.0, SVG Export Plug-In . SVG Version: 6.00 Build 0)  -->
<!DOCTYPE svg PUBLIC "-//W3C//DTD SVG 1.1//EN" "http://www.w3.org/Graphics/SVG/1.1/DTD/svg11.dtd">
<svg version="1.1"
	 id="svg2203" xmlns:cc="http://web.resource.org/cc/" xmlns:sodipodi="http://sodipodi.sourceforge.net/DTD/sodipodi-0.dtd" xmlns:svg="http://www.w3.org/2000/svg" xmlns:rdf="http://www.w3.org/1999/02/22-rdf-syntax-ns#" xmlns:inkscape="http://www.inkscape.org/namespaces/inkscape" xmlns:dc="http://purl.org/dc/elements/1.1/" inkscape:output_extension="org.inkscape.output.svg.inkscape" inkscape:version="0.45.1" sodipodi:docbase="D:\SVG\闂傚倸鍊搁崐椋庣矆娓氣偓楠炴牠寮诲☉娆愬劅闁靛繒濮锋禒鑲╃磽娴ｄ粙鍝洪柟鍛婃倐閺" sodipodi:docname="闂傚倸鍊峰ù鍥旈悩鍙夋喐缂佽京鍋炵换婵嬪磼濠婂懐锛滃┑鈩冭础缂佺姵宀稿娲箹閻愭彃濮曞┑锛勫仩濡嫰鎮炬搴ｇ煓閻犲洨鍋撳Λ鍐春閳ф煙閼荤棟" sodipodi:version="0.32"
	 xmlns="http://www.w3.org/2000/svg" xmlns:xlink="http://www.w3.org/1999/xlink" x="0px" y="0px" width="30px" height="30px"
	 viewBox="0 0 30 30" enable-background="new 0 0 30 30" xml:space="preserve">
<sodipodi:namedview  objecttolerance="10" gridtolerance="10000" pagecolor="#ffffff" inkscape:cx="126.79097" borderopacity="1.0" bordercolor="#666666" inkscape:cy="646.08493" guidetolerance="10" id="base" inkscape:zoom="0.74999999" showguides="true" inkscape:pageshadow="2" inkscape:guide-bbox="true" inkscape:pageopacity="0.0" inkscape:document-units="px" inkscape:current-layer="layer1" inkscape:window-width="1280" inkscape:window-x="-4" inkscape:window-y="-4" inkscape:window-height="968">
	<sodipodi:guide  orientation="vertical" position="1116" id="guide22942"></sodipodi:guide>
	<sodipodi:guide  orientation="vertical" position="1147" id="guide22944"></sodipodi:guide>
</sodipodi:namedview>
<g>
	<path d="M10.178,16.24v3.676H9.162v-9.833h2.234c0.85,0,1.509,0.256,1.978,0.768c0.469,0.512,0.703,1.244,0.703,2.196
		c0,0.965-0.274,1.747-0.823,2.346c-0.548,0.599-1.232,0.881-2.057,0.847H10.178L10.178,16.24z"/>
	<path fill="#FFFFFF" d="M10.178,11.201v3.924h0.939c0.62,0,1.09-0.175,1.412-0.524c0.322-0.349,0.48-0.849,0.48-1.501
		c0-1.265-0.599-1.898-1.797-1.898L10.178,11.201L10.178,11.201z"/>
	<polygon points="20.838,19.917 19.715,19.917 18.912,17.225 15.637,17.225 14.882,19.917 13.758,19.917 16.755,10.083 
		17.841,10.083 	"/>
	<path fill="#FFFFFF" d="M18.597,16.113l-1.188-4.088c-0.038-0.131-0.078-0.359-0.122-0.686h-0.025
		c-0.035,0.296-0.078,0.524-0.127,0.686l-1.178,4.088H18.597z"/>
</g>
</svg>
