<?xml version="1.0" encoding="utf-8"?>
<!-- Generator: Adobe Illustrator 17.0.0, SVG Export Plug-In . SVG Version: 6.00 Build 0)  -->
<!DOCTYPE svg PUBLIC "-//W3C//DTD SVG 1.1//EN" "http://www.w3.org/Graphics/SVG/1.1/DTD/svg11.dtd">
<svg version="1.1"
	 id="svg2203" xmlns:cc="http://web.resource.org/cc/" xmlns:sodipodi="http://sodipodi.sourceforge.net/DTD/sodipodi-0.dtd" xmlns:svg="http://www.w3.org/2000/svg" xmlns:rdf="http://www.w3.org/1999/02/22-rdf-syntax-ns#" xmlns:inkscape="http://www.inkscape.org/namespaces/inkscape" xmlns:dc="http://purl.org/dc/elements/1.1/" inkscape:output_extension="org.inkscape.output.svg.inkscape" inkscape:version="0.45.1" sodipodi:docbase="D:\SVG\闂傚倸鍊搁崐椋庣矆娓氣偓楠炴牠寮诲☉娆愬劅闁靛繒濮锋禒鑲╃磽娴ｄ粙鍝洪柟鍛婃倐閺" sodipodi:docname="闂傚倸鍊峰ù鍥旈悩鍙夋喐缂佽京鍋炵换婵嬪磼濠婂懐锛滃┑鈩冭础缂佺姵宀稿娲箹閻愭彃濮曞┑锛勫仩濡嫰鎮炬搴ｇ煓閻犲洨鍋撳Λ鍐春閳ф煙閼荤棟" sodipodi:version="0.32"
	 xmlns="http://www.w3.org/2000/svg" xmlns:xlink="http://www.w3.org/1999/xlink" x="0px" y="0px" width="30px" height="30px"
	 viewBox="0 0 30 30" enable-background="new 0 0 30 30" xml:space="preserve">
<sodipodi:namedview  objecttolerance="10" gridtolerance="10000" pagecolor="#ffffff" inkscape:cx="126.79097" borderopacity="1.0" bordercolor="#666666" inkscape:cy="646.08493" guidetolerance="10" id="base" inkscape:zoom="0.74999999" showguides="true" inkscape:pageshadow="2" inkscape:guide-bbox="true" inkscape:pageopacity="0.0" inkscape:document-units="px" inkscape:current-layer="layer1" inkscape:window-width="1280" inkscape:window-x="-4" inkscape:window-y="-4" inkscape:window-height="968">
	<sodipodi:guide  orientation="vertical" position="1116" id="guide22942"></sodipodi:guide>
	<sodipodi:guide  orientation="vertical" position="1147" id="guide22944"></sodipodi:guide>
</sodipodi:namedview>
<g>
	
		<rect x="8.781" y="13.631" transform="matrix(-0.9745 -0.2246 0.2246 -0.9745 14.7498 31.5386)" fill="#FFFFFF" width="0.776" height="2.598"/>
	<polygon fill="#A8A8A8" points="10.015,3.273 19.7,3.273 28.054,26.546 1.946,26.546 	"/>
	<polygon fill="#4C4C4C" points="10.575,3.316 18.925,3.316 26.29,26.546 3.709,26.546 	"/>
	<polygon fill="#FFFFFF" points="11.7,3.134 12.431,3.169 5.745,26.684 5.013,26.649 	"/>
	<polygon fill="#FFFFFF" points="24.944,26.831 24.213,26.866 17.526,3.352 18.258,3.316 	"/>
	<polygon fill="#626362" stroke="#FFFFFF" stroke-miterlimit="10" points="13.451,14.248 16.545,14.248 19.653,26.546 
		10.877,26.546 	"/>
	<line fill="none" stroke="#FFFFFF" stroke-miterlimit="10" x1="14.999" y1="14.91" x2="14.999" y2="26.546"/>
	<g>
		<polygon fill="#626362" stroke="#FFFFFF" stroke-miterlimit="10" points="14.045,3.495 15.674,3.495 17.312,9.974 12.687,9.974 		
			"/>
		<line fill="none" stroke="#FFFFFF" stroke-miterlimit="10" x1="14.86" y1="3.843" x2="14.86" y2="9.974"/>
	</g>
</g>
</svg>
