<?xml version="1.0" encoding="utf-8"?>
<!-- Generator: Adobe Illustrator 17.0.0, SVG Export Plug-In . SVG Version: 6.00 Build 0)  -->
<!DOCTYPE svg PUBLIC "-//W3C//DTD SVG 1.1//EN" "http://www.w3.org/Graphics/SVG/1.1/DTD/svg11.dtd">
<svg version="1.1"
	 id="svg2203" xmlns:inkscape="http://www.inkscape.org/namespaces/inkscape" xmlns:cc="http://web.resource.org/cc/" xmlns:dc="http://purl.org/dc/elements/1.1/" xmlns:sodipodi="http://sodipodi.sourceforge.net/DTD/sodipodi-0.dtd" xmlns:rdf="http://www.w3.org/1999/02/22-rdf-syntax-ns#" xmlns:svg="http://www.w3.org/2000/svg" sodipodi:docname="闂傚倸鍊搁崐鎼佸磹閹间礁纾归柟闂寸绾惧湱鈧懓瀚崳纾嬨亹閹烘垹鍊為梺鍝勫暙閻楀﹪宕戦幇鐗堢厱婵炲棗绻樺畷浼村箛绾捐棄霉閿濆棗鐏婇柛姘厱閻庯絼鎴烽梺鐟扮畭閸ㄥ綊鍩為幋鐘亾閿濆繒搴婂┑鐘垫暩婵挳鏁冮妶澶婄疇闁规壆澧楅弲绻濇繝鍌氭殜闁衡偓娴犲鐓冮柍杞扮閺嗐垻鐥崑鎾剁磽閸屾艾鈧兘鎳楅懜鍨弿闂傚牊绋撻弳鍡欑磼鐎ｄ虎閻撱倗绱掗悩鑼Ш闁哄矉缍侀獮鍥╁緤鐠囨祴鏀芥繛鍙夌墵閸╃偤骞嬮敂鑺ユ珫闂佸憡娲栭幗瀣節绾版ǚ鍋撻幎鑺ョ厵闁稿鎹囬獮鏍ㄦ綇閸撗勫仹闂佺粯鎸婚幑鍥蓟閿濆鍋愰柛娆忕粣娑㈡⒑缁嬪潡骞愬宀€浜遍梻浣告啞閸旀牕危濮婃椽鏌呴悙鎻掗柛妯兼暬濮婃椽鎳濋弶鍨優濠" inkscape:version="0.45.1" sodipodi:version="0.32" sodipodi:docbase="D:\SVG\闂傚倸鍊搁崐鎼佸磹閹间礁纾归柟闂寸绾惧綊鏌熼梻瀵哥痪鍓ф嚀閻庯絾宕抽梺缁橀柕鍡樺笒闁挎繂鎳嶆竟鏇熶繆閵堝洤啸闁稿鍋ら幃褔鎮╅懠瀚氭繛鏉戞繝鐢靛仜濡瑩宕濋弴銏犵闁告稑鐡ㄩ埛鎴︽⒒閸喓銆掔紒鐘插暱閳规垿寮ㄦ潏鈺冪焿闁圭儤閸ゅ啴鏌嶉崫鍕殶闁挎稒绻冪换娑欐綇閸撗冪紓浣烘噰鐎规毝娲偂濞嗘挻鐓曟繛鎴烇公閺€濠氭煕婵犲啫濮嶉柡" inkscape:output_extension="org.inkscape.output.svg.inkscape"
	 xmlns="http://www.w3.org/2000/svg" xmlns:xlink="http://www.w3.org/1999/xlink" x="0px" y="0px" width="30px" height="30px"
	 viewBox="0 0 30 30" enable-background="new 0 0 30 30" xml:space="preserve">
<sodipodi:namedview  inkscape:zoom="0.74999999" objecttolerance="10" showguides="true" inkscape:cy="646.08493" gridtolerance="10000" inkscape:cx="126.79097" pagecolor="#ffffff" borderopacity="1.0" id="base" bordercolor="#666666" guidetolerance="10" inkscape:window-y="-4" inkscape:window-height="968" inkscape:pageshadow="2" inkscape:pageopacity="0.0" inkscape:guide-bbox="true" inkscape:window-width="1280" inkscape:current-layer="layer1" inkscape:window-x="-4" inkscape:document-units="px">
	<sodipodi:guide  orientation="vertical" position="1116" id="guide22942"></sodipodi:guide>
	<sodipodi:guide  orientation="vertical" position="1147" id="guide22944"></sodipodi:guide>
</sodipodi:namedview>
<g>
	<rect x="7.881" y="7.478" fill="#1F2AFF" width="14.226" height="7.601"/>
	<rect x="7.864" y="8.526" fill="#B4B4B4" width="14.271" height="5.506"/>
	<g>
		<path d="M8.239,11.683h2.803v-0.808H8.239V11.683z"/>
		<path d="M13.754,11.683h2.802v-0.808h-2.802V11.683z"/>
		<path d="M19.273,11.683h2.805v-0.808h-2.805V11.683z"/>
	</g>
	<path fill="#00A7BF" d="M12.597,11.913c-1.014,0-1.838,0.824-1.838,1.839v6.932c0,1.014,0.825,1.838,1.838,1.838h6.93
		c1.015,0,1.839-0.824,1.839-1.838v-6.932c0-1.015-0.825-1.839-1.839-1.839H12.597z"/>
	<path fill="#FFFFFF" d="M11.603,20.771v-7.106c0-0.5,0.407-0.906,0.906-0.906h7.107c0.5,0,0.906,0.406,0.906,0.906v7.106
		c0,0.5-0.406,0.906-0.906,0.906h-7.107C12.01,21.678,11.603,21.271,11.603,20.771z"/>
	<g>
		<path d="M13.195,15.714h0.688v-1.031c0-0.313-0.011-0.635-0.031-0.969h0.656c-0.042,0.313-0.063,0.636-0.063,0.969v1.031
			c0.292,0,0.563-0.01,0.813-0.031v0.563c-0.229-0.021-0.5-0.031-0.813-0.031v1.406c0.271-0.104,0.531-0.208,0.781-0.313
			c0.021,0.167,0.052,0.344,0.094,0.531c-0.229,0.083-0.521,0.198-0.875,0.344v1.75c0,0.333,0.01,0.698,0.031,1.094h-0.625
			c0.021-0.375,0.031-0.74,0.031-1.094v-1.531c-0.542,0.208-0.938,0.386-1.188,0.531c-0.083-0.208-0.198-0.427-0.344-0.656
			c0.271-0.021,0.781-0.177,1.531-0.469v-1.594h-0.813c-0.083,0.354-0.156,0.667-0.219,0.938c-0.208-0.083-0.396-0.146-0.563-0.188
			c0.104-0.292,0.203-0.661,0.297-1.109c0.094-0.448,0.151-0.828,0.172-1.141c0.25,0.063,0.479,0.115,0.688,0.156
			C13.362,14.995,13.278,15.276,13.195,15.714z M17.07,16.276v-1.125h-0.469c-0.333,0-0.625,0.011-0.875,0.031v-0.563
			c0.229,0.021,0.521,0.031,0.875,0.031h0.469c0-0.417-0.021-0.729-0.063-0.938h0.656c-0.021,0.208-0.031,0.521-0.031,0.938h0.719
			c0.313,0,0.614-0.01,0.906-0.031v0.563c-0.208-0.021-0.511-0.031-0.906-0.031h-0.718v1.125h1.188c0.313,0,0.604-0.01,0.875-0.031
			v0.563c-0.25-0.021-0.521-0.031-0.813-0.031h-0.281v0.938c0.458,0,0.802-0.01,1.031-0.031v0.594
			c-0.25-0.021-0.594-0.031-1.031-0.031v2.063c-0.021,0.25-0.115,0.422-0.281,0.516c-0.167,0.094-0.49,0.172-0.969,0.234
			c-0.042-0.25-0.125-0.49-0.25-0.719c0.375,0.021,0.625,0.021,0.75,0s0.188-0.125,0.188-0.313v-1.783H16.51
			c-0.354,0-0.667,0.011-0.938,0.031v-0.594c0.229,0.021,0.542,0.031,0.938,0.031h1.531v-0.938h-1.563c-0.375,0-0.708,0.011-1,0.031
			v-0.561c0.292,0.021,0.614,0.031,0.969,0.031H17.07z M16.976,19.807c-0.188,0.042-0.386,0.115-0.594,0.219
			c-0.146-0.438-0.302-0.802-0.469-1.094c0.208-0.063,0.406-0.135,0.594-0.219C16.674,19.089,16.83,19.452,16.976,19.807z"/>
	</g>
</g>
</svg>
