<?xml version="1.0" encoding="utf-8"?>
<!-- Generator: Adobe Illustrator 17.0.0, SVG Export Plug-In . SVG Version: 6.00 Build 0)  -->
<!DOCTYPE svg PUBLIC "-//W3C//DTD SVG 1.1//EN" "http://www.w3.org/Graphics/SVG/1.1/DTD/svg11.dtd">
<svg version="1.1"
	 id="svg2203" xmlns:inkscape="http://www.inkscape.org/namespaces/inkscape" xmlns:cc="http://web.resource.org/cc/" xmlns:dc="http://purl.org/dc/elements/1.1/" xmlns:sodipodi="http://sodipodi.sourceforge.net/DTD/sodipodi-0.dtd" xmlns:rdf="http://www.w3.org/1999/02/22-rdf-syntax-ns#" xmlns:svg="http://www.w3.org/2000/svg" sodipodi:docname="闂備浇妤犲摜绱炴繝鍌滅磼濡湱绠氶梺鎼炲劜濡炶棄鐣风粙璇炬棃鍩€閹苯g" inkscape:version="0.45.1" sodipodi:version="0.32" sodipodi:docbase="D:\SVG\闂傚倷绀侀幖鏌涙惔銏犵仼缂佽鲸鎸搁柍" inkscape:output_extension="org.inkscape.output.svg.inkscape"
	 xmlns="http://www.w3.org/2000/svg" xmlns:xlink="http://www.w3.org/1999/xlink" x="0px" y="0px" width="30px" height="30px"
	 viewBox="0 0 30 30" enable-background="new 0 0 30 30" xml:space="preserve">
<sodipodi:namedview  inkscape:zoom="0.74999999" objecttolerance="10" showguides="true" inkscape:cy="646.08493" gridtolerance="10000" inkscape:cx="126.79097" pagecolor="#ffffff" borderopacity="1.0" id="base" bordercolor="#666666" guidetolerance="10" inkscape:window-y="-4" inkscape:window-height="968" inkscape:pageshadow="2" inkscape:pageopacity="0.0" inkscape:guide-bbox="true" inkscape:window-width="1280" inkscape:current-layer="layer1" inkscape:window-x="-4" inkscape:document-units="px">
	<sodipodi:guide  orientation="vertical" position="1116" id="guide22942"></sodipodi:guide>
	<sodipodi:guide  orientation="vertical" position="1147" id="guide22944"></sodipodi:guide>
</sodipodi:namedview>
<g>
	<polygon fill="#0078FF" points="19.88,11.316 20.556,10.159 21.277,11.316 21.277,11.4 21.915,11.4 21.915,12.878 21.277,12.878 
		21.277,17.455 21.915,17.455 21.915,18.934 21.277,18.934 21.277,19.841 19.88,19.841 19.88,18.934 18.485,18.934 18.485,19.841 
		17.09,19.841 17.09,18.934 15.696,18.934 15.696,19.841 14.302,19.841 14.302,18.934 12.907,18.934 12.907,19.841 11.512,19.841 
		11.512,18.934 10.117,18.934 10.117,19.841 8.723,19.841 8.723,18.934 8.085,18.934 8.085,17.455 8.723,17.455 8.723,12.878 
		8.085,12.878 8.085,11.4 8.723,11.4 8.723,11.316 9.397,10.159 10.118,11.316 10.118,11.4 11.513,11.4 11.513,11.316 
		12.186,10.159 12.908,11.316 12.908,11.4 14.303,11.4 14.303,11.316 14.976,10.159 15.696,11.316 15.696,11.4 17.092,11.4 
		17.092,11.316 17.767,10.159 18.488,11.316 18.488,11.4 19.883,11.4 19.883,11.316 	"/>
	<polygon fill="#FFFFFF" points="19.88,17.453 19.88,12.878 18.485,12.878 18.485,17.455 19.88,17.455 	"/>
	<polygon fill="#FFFFFF" points="17.091,17.453 17.091,12.878 15.696,12.878 15.696,17.455 17.091,17.455 	"/>
	<polygon fill="#FFFFFF" points="14.302,17.453 14.302,12.878 12.907,12.878 12.907,17.455 14.302,17.455 	"/>
	<polygon fill="#FFFFFF" points="11.512,17.453 11.512,12.878 10.117,12.878 10.117,17.455 11.512,17.455 	"/>
</g>
</svg>
