<?xml version="1.0" encoding="utf-8"?>
<!-- Generator: Adobe Illustrator 17.0.0, SVG Export Plug-In . SVG Version: 6.00 Build 0)  -->
<!DOCTYPE svg PUBLIC "-//W3C//DTD SVG 1.1//EN" "http://www.w3.org/Graphics/SVG/1.1/DTD/svg11.dtd">
<svg version="1.1" id="switch5" xmlns="http://www.w3.org/2000/svg" xmlns:xlink="http://www.w3.org/1999/xlink" x="0px" y="0px"
	 width="30px" height="30.009px" viewBox="0 0 30 30.009" enable-background="new 0 0 30 30.009" xml:space="preserve">
<g id="图层_3">
</g>
<g>
	<path fill="#003CFF" d="M6.094,9.428V6.339c0-0.623,0.448-1.128,1-1.128h7.125v2.682c0.26-0.007,0.518-0.017,0.781-0.017
		s0.521,0.01,0.781,0.017V5.211h6.563c0.552,0,1,0.505,1,1.128V9.21c0.41,0.152,0.795,0.316,1.156,0.489V5.07
		c0-0.623-0.448-1.128-1-1.128H5.938c-0.552,0-1,0.505-1,1.128v4.918C5.295,9.79,5.677,9.602,6.094,9.428z"/>
	<path fill="#003CFF" d="M3.656,24.566c0,0,1.875,0.125,2.813-1.688c0,0,2.188,3.438,5.5,0c0,0,2.875,4,5.625,0c0,0,2,3.438,5.563,0
		c0,0,0.5,2.056,2.938,1.778v1.222c0,0-1.546,0.563-2.857-0.735c0,0-3.518,1.61-5.393-0.203c0,0-3.083,2.659-5.839-0.219
		c0,0-3.099,2.532-5.411,0.032c0,0-1.313,1.426-2.938,1.307L3.656,24.566L3.656,24.566z"/>
	<g>
		<path fill="#003CFF" d="M10.275,23.07c0.523-0.232,1.089-0.626,1.694-1.254c0,0,1.18,1.631,2.75,1.761V9.072
			C8.585,9.129,3.656,11.019,3.656,13.348C3.656,15.075,6.371,20.349,10.275,23.07z"/>
		<path fill="#003CFF" d="M11.675,23.895c0.389,0.192,0.788,0.349,1.193,0.478c-0.289-0.189-0.578-0.415-0.864-0.713
			C12.005,23.659,11.883,23.757,11.675,23.895z"/>
	</g>
	<g>
		<path fill="#003CFF" d="M17.594,21.816c0,0,0.648,1.109,1.861,1.436c4.049-2.66,6.889-8.137,6.889-9.904
			c0-2.329-4.929-4.219-11.063-4.276v14.48C16.017,23.434,16.809,22.957,17.594,21.816z"/>
		<path fill="#003CFF" d="M18.028,24.029c-0.061-0.05-0.126-0.093-0.184-0.15c0,0-0.289,0.247-0.765,0.509
			C17.4,24.288,17.716,24.169,18.028,24.029z"/>
	</g>
</g>
</svg>
