<?xml version="1.0" encoding="utf-8"?>
<!-- Generator: Adobe Illustrator 17.0.0, SVG Export Plug-In . SVG Version: 6.00 Build 0)  -->
<!DOCTYPE svg PUBLIC "-//W3C//DTD SVG 1.1//EN" "http://www.w3.org/Graphics/SVG/1.1/DTD/svg11.dtd">
<svg version="1.1"
	 id="svg2203" inkscape:output_extension="org.inkscape.output.svg.inkscape" inkscape:version="0.45.1" sodipodi:docbase="D:\SVG\闂傚倸鍊搁崐鎼佸磹妞嬪海鐭嗗〒姘ｅ亾妤犵偞鐗犲璇测槈濞嗘劕鍔呴梺闈涚箳婵攱绂掗懖鈺冪＝濞达絼绮欓崫娲煙閸涘﹥鍊愰柡" sodipodi:docname="闂傚倸鍊搁崐宄懊归崶鏃堟偐閸欏鍠愮紓浣戒含閸嬬偟鎹㈠┑瀣＜婵犲﹤鎳愰敍婊冣攽閳╁啳纭€缂備胶濮靛畝绋垮ú绠归柣鎰絻婵洖鈹戦敍鍕哗婵″閹偓鎼达絿鐓撻柣鐘叉川閸嬫挸螞閸愭槬闁逞勭厵闁艰崵妫" sodipodi:version="0.32" xmlns:sodipodi="http://sodipodi.sourceforge.net/DTD/sodipodi-0.dtd" xmlns:cc="http://web.resource.org/cc/" xmlns:dc="http://purl.org/dc/elements/1.1/" xmlns:inkscape="http://www.inkscape.org/namespaces/inkscape" xmlns:rdf="http://www.w3.org/1999/02/22-rdf-syntax-ns#" xmlns:svg="http://www.w3.org/2000/svg"
	 xmlns="http://www.w3.org/2000/svg" xmlns:xlink="http://www.w3.org/1999/xlink" x="0px" y="0px" width="30px" height="30px"
	 viewBox="0 0 30 30" enable-background="new 0 0 30 30" xml:space="preserve">
<sodipodi:namedview  inkscape:pageshadow="2" inkscape:guide-bbox="true" inkscape:pageopacity="0.0" inkscape:document-units="px" inkscape:current-layer="layer1" inkscape:window-width="1280" inkscape:window-x="-4" inkscape:window-y="-4" inkscape:window-height="968" gridtolerance="10000" pagecolor="#ffffff" id="base" guidetolerance="10" inkscape:cx="126.79097" borderopacity="1.0" objecttolerance="10" bordercolor="#666666" inkscape:zoom="0.74999999" showguides="true" inkscape:cy="646.08493">
	<sodipodi:guide  position="1116" orientation="vertical" id="guide22942"></sodipodi:guide>
	<sodipodi:guide  position="1147" orientation="vertical" id="guide22944"></sodipodi:guide>
</sodipodi:namedview>
<rect fill="#0000FF" width="30" height="30"/>
<rect x="1.5" y="2" fill="#FFFFFF" width="2.5" height="26"/>
<rect x="2.75" y="3.875" transform="matrix(0.7071 -0.7071 0.7071 0.7071 -1.9217 4.8605)" fill="#FFFFFF" width="4.313" height="1.75"/>
<rect x="2.75" y="8.875" transform="matrix(0.7071 -0.7071 0.7071 0.7071 -5.4573 6.325)" fill="#FFFFFF" width="4.313" height="1.75"/>
<rect x="2.75" y="13.875" transform="matrix(0.7071 -0.7071 0.7071 0.7071 -8.9928 7.7894)" fill="#FFFFFF" width="4.313" height="1.75"/>
<rect x="2.75" y="18.875" transform="matrix(0.7071 -0.7071 0.7071 0.7071 -12.5284 9.2539)" fill="#FFFFFF" width="4.313" height="1.75"/>
<rect x="2.75" y="23.875" transform="matrix(0.7071 -0.7071 0.7071 0.7071 -16.0639 10.7184)" fill="#FFFFFF" width="4.313" height="1.75"/>
<rect x="26" y="2" fill="#FFFFFF" width="2.5" height="26"/>
<rect x="22.938" y="3.875" transform="matrix(-0.7071 -0.7071 0.7071 -0.7071 39.479 25.8527)" fill="#FFFFFF" width="4.313" height="1.75"/>
<rect x="22.938" y="8.875" transform="matrix(-0.7071 -0.7071 0.7071 -0.7071 35.9434 34.3883)" fill="#FFFFFF" width="4.313" height="1.75"/>
<rect x="22.938" y="13.875" transform="matrix(-0.7071 -0.7071 0.7071 -0.7071 32.4079 42.9238)" fill="#FFFFFF" width="4.313" height="1.75"/>
<rect x="22.938" y="18.875" transform="matrix(-0.7071 -0.7071 0.7071 -0.7071 28.8724 51.4593)" fill="#FFFFFF" width="4.313" height="1.75"/>
<rect x="22.938" y="23.875" transform="matrix(-0.7071 -0.7071 0.7071 -0.7071 25.3368 59.9949)" fill="#FFFFFF" width="4.313" height="1.75"/>
</svg>
