<?xml version="1.0" encoding="utf-8"?>
<!-- Generator: Adobe Illustrator 17.0.0, SVG Export Plug-In . SVG Version: 6.00 Build 0)  -->
<!DOCTYPE svg PUBLIC "-//W3C//DTD SVG 1.1//EN" "http://www.w3.org/Graphics/SVG/1.1/DTD/svg11.dtd">
<svg version="1.1" id="图层_2" xmlns="http://www.w3.org/2000/svg" xmlns:xlink="http://www.w3.org/1999/xlink" x="0px" y="0px"
	 width="30px" height="30px" viewBox="0 0 30 30" enable-background="new 0 0 30 30" xml:space="preserve">
<g>
	<path d="M8.626,21.84c0.633-0.357,1.168-0.678,1.995-0.574c0.825,0.107,1.638-0.011,2.134-0.621
		c-0.811,0.301-1.231,0.239-2.068,0.174C9.759,20.747,9.008,21.247,8.626,21.84L8.626,21.84z"/>
	<path d="M7.162,18.388c1.155,0.465,2.134,0.903,3.462,0.343c1.329-0.561,2.708-0.658,3.713,0.383
		c-1.429-0.282-2.105,0.024-3.463,0.509C9.367,20.158,7.977,19.442,7.162,18.388L7.162,18.388z"/>
	<polygon points="7.683,17.461 12.306,9.453 16.929,17.461 	"/>
	<polygon fill="#FFFFFF" points="21.113,17.34 20.625,17.34 11.379,17.34 10.891,17.34 11.134,16.936 15.757,9.295 16.005,8.891 
		16.251,9.295 20.869,16.936 	"/>
	<polygon points="11.904,17.461 16.528,9.453 21.148,17.461 	"/>
	<path fill="#1F6AFF" d="M22.204,8.235c0-0.513-0.622-0.929-1.387-0.929c-0.642,0-1.178,0.295-1.334,0.692
		c-0.869,0.013-1.566,0.292-1.585,0.636c-0.422,0.011-0.76,0.286-0.76,0.625c0,0.347,0.353,0.628,0.785,0.628
		c0.196,0,0.373-0.059,0.509-0.153c0.12,0.436,0.716,0.77,1.438,0.77c0.808,0,1.462-0.417,1.462-0.929
		c0-0.161-0.071-0.311-0.184-0.443C21.753,9.034,22.204,8.67,22.204,8.235z"/>
	<polyline points="14.477,21.837 15.438,20.83 18.008,18.54 21.09,15.371 	"/>
	<polyline points="22.159,14.402 22.826,14.402 22.838,10.941 10.227,22.694 14.099,22.671 	"/>
	<polygon fill="#0070FF" points="22.826,14.815 22.197,15.469 21.563,15.469 22.2,14.809 22.826,14.809 22.812,12.043 
		11.941,22.683 14.633,22.671 15.898,21.376 16.531,21.376 15.268,22.671 22.826,22.671 	"/>
	<polygon fill="#FFFFFF" points="17.273,20.775 16.623,20.775 17.933,19.414 18.584,19.414 	"/>
	<polygon fill="#FFFFFF" points="19.262,18.711 18.61,18.711 19.604,17.678 20.256,17.678 	"/>
	<polygon fill="#FFFFFF" points="20.934,16.974 20.282,16.974 21.049,16.176 21.701,16.176 	"/>
</g>
</svg>
