<?xml version="1.0" encoding="utf-8"?>
<!-- Generator: Adobe Illustrator 17.0.0, SVG Export Plug-In . SVG Version: 6.00 Build 0)  -->
<!DOCTYPE svg PUBLIC "-//W3C//DTD SVG 1.1//EN" "http://www.w3.org/Graphics/SVG/1.1/DTD/svg11.dtd">
<svg version="1.1"
	 id="svg2203" inkscape:output_extension="org.inkscape.output.svg.inkscape" sodipodi:version="0.32" sodipodi:docbase="D:\SVG\闂傚倷绀侀幖鏌涙惔銏犵仼缂佽鲸鎸搁柍" sodipodi:docname="闂備浇妤犲摜绱炴繝鍌滅磼濡湱绠氶梺鎼炲劜濡炶棄鐣风粙璇炬棃鍩€閹苯g" inkscape:version="0.45.1" xmlns:sodipodi="http://sodipodi.sourceforge.net/DTD/sodipodi-0.dtd" xmlns:dc="http://purl.org/dc/elements/1.1/" xmlns:cc="http://web.resource.org/cc/" xmlns:inkscape="http://www.inkscape.org/namespaces/inkscape" xmlns:rdf="http://www.w3.org/1999/02/22-rdf-syntax-ns#" xmlns:svg="http://www.w3.org/2000/svg"
	 xmlns="http://www.w3.org/2000/svg" xmlns:xlink="http://www.w3.org/1999/xlink" x="0px" y="0px" width="30px" height="30px"
	 viewBox="0 0 30 30" enable-background="new 0 0 30 30" xml:space="preserve">
<sodipodi:namedview  inkscape:pageopacity="0.0" inkscape:pageshadow="2" inkscape:document-units="px" inkscape:window-x="-4" inkscape:window-y="-4" inkscape:window-width="1280" inkscape:window-height="968" inkscape:guide-bbox="true" inkscape:current-layer="layer1" showguides="true" bordercolor="#666666" inkscape:cy="646.08493" gridtolerance="10000" id="base" borderopacity="1.0" objecttolerance="10" pagecolor="#ffffff" inkscape:cx="126.79097" inkscape:zoom="0.74999999" guidetolerance="10">
	<sodipodi:guide  position="1116" orientation="vertical" id="guide22942"></sodipodi:guide>
	<sodipodi:guide  position="1147" orientation="vertical" id="guide22944"></sodipodi:guide>
</sodipodi:namedview>
<g>
	<polygon fill="#001EFF" points="13.8,7.257 13.8,11.09 11.638,11.09 12.459,7.3 	"/>
	<polygon fill="#001EFF" points="15.528,7.257 15.528,11.09 17.547,11.09 16.781,7.3 	"/>
	<polygon fill="#948F00" points="7.164,12.446 22.836,12.446 22.836,14.647 21.783,14.647 21.783,16.945 20.266,16.945 
		20.266,14.921 10.131,14.921 10.174,16.945 8.517,16.945 8.518,14.638 7.212,14.638 	"/>
	<polygon fill="#001EFF" points="11.799,16.785 13.973,16.785 13.973,22.743 10.437,22.743 	"/>
	<polygon fill="#001EFF" points="17.76,16.785 15.673,16.785 15.673,22.743 19.068,22.743 	"/>
</g>
</svg>
