<?xml version="1.0" encoding="utf-8"?>
<!-- Generator: Adobe Illustrator 17.0.0, SVG Export Plug-In . SVG Version: 6.00 Build 0)  -->
<!DOCTYPE svg PUBLIC "-//W3C//DTD SVG 1.1//EN" "http://www.w3.org/Graphics/SVG/1.1/DTD/svg11.dtd">
<svg version="1.1"
	 id="svg2203" xmlns:inkscape="http://www.inkscape.org/namespaces/inkscape" xmlns:cc="http://web.resource.org/cc/" xmlns:dc="http://purl.org/dc/elements/1.1/" xmlns:sodipodi="http://sodipodi.sourceforge.net/DTD/sodipodi-0.dtd" xmlns:rdf="http://www.w3.org/1999/02/22-rdf-syntax-ns#" xmlns:svg="http://www.w3.org/2000/svg" sodipodi:docname="闂傚倸鍊峰ù鍥旈悩鍙夋喐缂佽京鍋炵换婵嬪磼濠婂懐锛滃┑鈩冭础缂佺姵宀稿娲箹閻愭彃濮曞┑锛勫仩濡嫰鎮炬搴ｇ煓閻犲洨鍋撳Λ鍐春閳ф煙閼荤棟" inkscape:version="0.45.1" sodipodi:version="0.32" sodipodi:docbase="D:\SVG\闂傚倸鍊搁崐椋庣矆娓氣偓楠炴牠寮诲☉娆愬劅闁靛繒濮锋禒鑲╃磽娴ｄ粙鍝洪柟鍛婃倐閺" inkscape:output_extension="org.inkscape.output.svg.inkscape"
	 xmlns="http://www.w3.org/2000/svg" xmlns:xlink="http://www.w3.org/1999/xlink" x="0px" y="0px" width="30px" height="30px"
	 viewBox="0 0 30 30" enable-background="new 0 0 30 30" xml:space="preserve">
<sodipodi:namedview  inkscape:zoom="0.74999999" objecttolerance="10" showguides="true" inkscape:cy="646.08493" gridtolerance="10000" inkscape:cx="126.79097" pagecolor="#ffffff" borderopacity="1.0" id="base" bordercolor="#666666" guidetolerance="10" inkscape:window-y="-4" inkscape:window-height="968" inkscape:pageshadow="2" inkscape:pageopacity="0.0" inkscape:guide-bbox="true" inkscape:window-width="1280" inkscape:current-layer="layer1" inkscape:window-x="-4" inkscape:document-units="px">
	<sodipodi:guide  orientation="vertical" position="1116" id="guide22942"></sodipodi:guide>
	<sodipodi:guide  orientation="vertical" position="1147" id="guide22944"></sodipodi:guide>
</sodipodi:namedview>
<g>
	<polygon fill="#1E499C" points="18.848,7.626 11.154,7.626 7.188,12.093 7.188,22.374 22.813,22.374 22.813,12.093 	"/>
	<path fill="#FFFFFF" d="M16.243,10.823l0.2-2.642h1.886l-1.063,3.104C16.946,11.09,16.602,10.934,16.243,10.823z"/>
	<path fill="#FFFFFF" d="M15.757,10.707c-0.248-0.044-0.5-0.069-0.758-0.069c-0.284,0-0.562,0.027-0.831,0.084l-0.193-2.54h1.973
		L15.757,10.707z"/>
	<path fill="#FFFFFF" d="M13.682,10.846c-0.37,0.12-0.719,0.285-1.042,0.496l-1.054-3.16h1.895L13.682,10.846z"/>
	<path fill="#FFFFFF" d="M12.214,11.651c-0.266,0.216-0.514,0.464-0.731,0.738l-1.934-2.172l1.595-1.792L12.214,11.651z"/>
	<path fill="#FFFFFF" d="M11.165,12.82c-0.217,0.335-0.402,0.695-0.547,1.08l-2.78-1.757l1.363-1.534L11.165,12.82z"/>
	<rect x="7.681" y="17.837" fill="#FFFFFF" width="2.56" height="1.668"/>
	<path fill="#FFFFFF" d="M10.241,15.992v1.285h-2.56v-1.754h2.575C10.247,15.68,10.241,15.834,10.241,15.992z"/>
	<path fill="#FFFFFF" d="M10.448,14.431c-0.047,0.178-0.089,0.354-0.118,0.537H7.684V12.68L10.448,14.431z"/>
	<rect x="7.679" y="20.059" fill="#FFFFFF" width="2.563" height="1.76"/>
	<rect x="19.735" y="17.837" fill="#FFFFFF" width="2.582" height="1.668"/>
	<path fill="#FFFFFF" d="M22.317,17.278h-2.582v-1.285c0-0.156-0.007-0.313-0.021-0.469h2.603
		C22.317,15.523,22.317,17.278,22.317,17.278z"/>
	<path fill="#FFFFFF" d="M18.792,12.782l1.965-2.212l1.375,1.542l-2.78,1.751C19.2,13.474,19.013,13.115,18.792,12.782z"/>
	<rect x="19.735" y="20.059" fill="#FFFFFF" width="2.582" height="1.76"/>
	<path fill="#FFFFFF" d="M22.317,14.967h-2.668c-0.045-0.259-0.105-0.513-0.185-0.757l0.08,0.163l2.771-1.737L22.317,14.967
		L22.317,14.967z"/>
	<path fill="#FFFFFF" d="M20.411,10.171l-1.936,2.182c-0.234-0.287-0.496-0.547-0.781-0.771l1.104-3.227L20.411,10.171z"/>
	<path fill="#231815" d="M10.241,21.819h9.495c0,0,0.066-5.191-0.086-6.852c-0.156-1.659-1.716-3.918-3.896-4.264
		c0,0-4.828-0.877-5.532,5.07C10.165,16.256,10.241,21.819,10.241,21.819z"/>
	<path fill="#FFFFFF" d="M12.343,21.408h5.327c0,0,0.039-4.729-0.048-5.661c-0.089-0.93-0.963-2.196-2.184-2.391
		c0,0-2.71-0.491-3.107,2.844C12.299,16.472,12.343,21.408,12.343,21.408z"/>
</g>
</svg>
