<?xml version="1.0" encoding="utf-8"?>
<!-- Generator: Adobe Illustrator 17.0.0, SVG Export Plug-In . SVG Version: 6.00 Build 0)  -->
<!DOCTYPE svg PUBLIC "-//W3C//DTD SVG 1.1//EN" "http://www.w3.org/Graphics/SVG/1.1/DTD/svg11.dtd">
<svg version="1.1" id="switch5" xmlns="http://www.w3.org/2000/svg" xmlns:xlink="http://www.w3.org/1999/xlink" x="0px" y="0px"
	 width="30px" height="30px" viewBox="0 0 30 30" enable-background="new 0 0 30 30" xml:space="preserve">
<g id="图层_3">
</g>
<g id="g9" xmlns:inkscape="http://www.inkscape.org/namespaces/inkscape" xmlns:cc="http://web.resource.org/cc/" xmlns:dc="http://purl.org/dc/elements/1.1/" xmlns:sodipodi="http://sodipodi.sourceforge.net/DTD/sodipodi-0.dtd" xmlns:rdf="http://www.w3.org/1999/02/22-rdf-syntax-ns#" xmlns:svg="http://www.w3.org/2000/svg" sodipodi:docname="濠电偞鍨堕幐鍝ョ矓閻㈢鏋侀柛锕€svg" inkscape:version="0.45.1" sodipodi:version="0.32" sodipodi:docbase="C:\Documents and Settings\liaoxueping.DEVELOPMENT\婵犵鍓濋柣鍊搁柣褉鏆瀡g\闂佽绻掗崑鐔煎磻閻愬搫鐒" inkscape:output_extension="org.inkscape.output.svg.inkscape">
	
		<sodipodi:namedview  inkscape:zoom="0.35" objecttolerance="10" inkscape:cy="520" gridtolerance="10000" inkscape:cx="375" pagecolor="#ffffff" borderopacity="1.0" id="base" bordercolor="#666666" guidetolerance="10" inkscape:window-y="58" inkscape:window-height="577" inkscape:pageshadow="2" inkscape:pageopacity="0.0" inkscape:window-width="673" inkscape:current-layer="layer1" inkscape:window-x="44" inkscape:document-units="px">
		</sodipodi:namedview>
	<rect id="rect15" x="0.434" y="0.434" fill="#03B850" width="29.133" height="29.133"/>
	<line id="line21" fill="none" stroke="#FFFFFF" stroke-width="2.935" x1="9.284" y1="6.24" x2="14.942" y2="11.899"/>
	<line id="line23" fill="none" stroke="#FFFFFF" stroke-width="2.6089" x1="9.493" y1="15.473" x2="20.621" y2="15.473"/>
	<rect x="12.089" y="18.643" width="5.951" height="1.172"/>
	<line id="line25" fill="none" stroke="#FFFFFF" stroke-width="2.6089" x1="9.493" y1="19.53" x2="20.621" y2="19.53"/>
	<line id="line27" fill="none" stroke="#FFFFFF" stroke-width="2.935" x1="15.015" y1="11.729" x2="15.015" y2="25.122"/>
	<line id="line29" fill="none" stroke="#FFFFFF" stroke-width="2.935" x1="15.056" y1="11.785" x2="20.661" y2="6.18"/>
	<g>
		<rect x="16.502" y="24.667" fill="#1956A2" width="10.572" height="0.587"/>
		<rect x="18.507" y="20.94" fill="#1956A2" width="8.511" height="0.62"/>
		<rect x="24.557" y="22.854" width="2.518" height="0.609"/>
		<rect x="18.583" y="22.854" width="3.4" height="0.609"/>
	</g>
	<path id="path18" fill="none" stroke="#FFFFFF" stroke-width="1.6306" d="M27.799,25.399c0,1.325-1.075,2.4-2.4,2.4h-20.8
		c-1.325,0-2.4-1.075-2.4-2.4v-20.8c0-1.325,1.074-2.4,2.4-2.4h20.8c1.325,0,2.4,1.074,2.4,2.4V25.399L27.799,25.399L27.799,25.399z
		"/>
	<g>
		<rect x="2.969" y="24.721" fill="#1956A2" width="10.572" height="0.587"/>
		<rect x="3.025" y="20.995" fill="#1956A2" width="8.715" height="0.62"/>
		<rect x="2.969" y="22.908" width="2.518" height="0.609"/>
		<rect x="8.06" y="22.908" width="3.645" height="0.609"/>
	</g>
	<polygon id="polygon31" fill="#FF1A00" stroke="#FF1A00" stroke-width="0.8153" points="22.479,6.417 24.403,6.417 7.996,20.269 
		6.196,20.269 	"/>
</g>
</svg>
